<?xml version="1.0" standalone="no"?>
<!DOCTYPE svg PUBLIC "-//W3C//DTD SVG 20010904//EN"
 "http://www.w3.org/TR/2001/REC-SVG-20010904/DTD/svg10.dtd">
<svg version="1.0" xmlns="http://www.w3.org/2000/svg"
 width="500.000000pt" height="500.000000pt" viewBox="0 0 500.000000 500.000000"
 preserveAspectRatio="xMidYMid meet">
<metadata>
Created by potrace 1.14, written by Peter Selinger 2001-2017
</metadata>
<g transform="translate(0.000000,500.000000) scale(0.100000,-0.100000)"
fill="#000000" stroke="none">
<path d="M2927 4823 c-1 0 -238 -4 -527 -8 -762 -10 -776 -10 -805 -29 -30
-19 -65 -85 -65 -121 0 -24 2 -25 73 -26 177 -1 266 -4 271 -10 12 -12 23
-139 21 -234 -6 -215 -69 -337 -213 -413 -31 -16 -122 -51 -202 -77 -177 -58
-274 -104 -360 -169 -141 -106 -218 -231 -275 -441 -28 -104 -41 -135 -59
-147 -17 -11 -124 52 -161 94 -34 40 -69 136 -80 218 -19 146 -103 181 -160
67 -22 -46 -24 -60 -22 -157 2 -100 4 -111 39 -181 41 -81 79 -131 200 -258
150 -157 167 -191 248 -468 131 -447 187 -578 343 -813 142 -213 331 -437 503
-595 59 -55 115 -107 124 -115 8 -8 49 -43 90 -76 93 -76 107 -91 93 -105 -6
-6 -50 -19 -98 -30 -151 -34 -159 -43 -159 -181 0 -72 -2 -78 -21 -78 -20 0
-21 -5 -20 -107 l1 -108 92 -1 c90 -1 92 -1 92 22 0 26 -5 27 -91 26 l-47 -1
1 59 c1 33 6 61 11 63 9 3 241 1 256 -2 3 -1 5 -57 5 -126 -1 -105 2 -125 15
-126 28 -2 114 2 118 6 3 2 5 59 5 127 l1 123 135 0 136 0 0 -60 c0 -67 9 -62
-101 -64 -36 -1 -40 -4 -39 -23 2 -22 6 -23 86 -24 46 0 89 1 94 3 6 2 10 46
9 108 -1 105 -1 105 23 105 24 0 24 -2 23 -67 -1 -38 -2 -86 -1 -108 l1 -40
90 -1 c81 0 90 1 90 18 0 10 1 21 3 25 1 3 -29 7 -68 7 l-70 1 0 57 c0 32 4
59 10 61 9 3 240 1 257 -2 3 0 6 -57 5 -125 l-2 -124 40 -4 c22 -2 54 -2 71 0
l30 3 -1 120 c-1 100 2 122 14 128 9 4 70 7 136 6 l120 0 3 -62 3 -62 -71 2
c-70 2 -71 2 -68 -23 3 -25 4 -25 93 -25 l89 0 1 108 1 107 -150 0 c-82 0
-147 2 -145 4 2 2 58 5 124 7 66 1 126 5 133 7 9 3 12 17 8 46 -3 22 -8 69
-12 103 -4 35 -12 69 -18 77 -6 8 -33 18 -61 21 -44 5 -67 8 -138 21 -77 14
-73 31 23 108 41 34 136 122 210 196 373 374 561 651 690 1015 17 50 65 216
106 369 43 163 88 306 106 343 17 35 66 105 110 156 189 220 278 406 278 576
0 95 -32 141 -98 141 -50 0 -79 -48 -112 -190 -39 -162 -72 -215 -168 -264
-38 -20 -71 -18 -82 4 -5 8 -16 51 -25 95 -28 135 -90 241 -209 361 -123 123
-228 186 -450 268 -377 141 -444 227 -451 589 -2 135 -1 137 103 138 213 1
253 4 262 19 14 21 12 34 -2 22 -18 -14 -120 -24 -136 -13 -8 4 -16 26 -18 47
l-4 39 17 -32 c9 -18 20 -33 25 -33 11 0 10 17 -1 24 -16 10 0 47 18 42 76
-20 80 -18 56 24 l-13 25 -177 0 c-97 0 -177 -1 -178 -2z m333 -17 c-17 -16
-838 -36 -1501 -36 l-97 0 -4 -36 c-5 -44 8 -55 17 -13 5 20 12 29 21 25 7 -3
16 -1 19 4 14 22 23 8 14 -22 -11 -40 -11 -38 0 -38 4 0 15 17 24 38 12 29 15
32 16 14 1 -34 -26 -92 -43 -92 -9 0 -16 4 -16 9 0 12 -39 21 -46 10 -3 -5
-12 -9 -21 -9 -11 0 -14 8 -11 34 2 19 0 32 -4 30 -4 -3 -8 -11 -8 -19 0 -18
-29 -47 -41 -40 -13 8 -11 35 6 70 l14 30 -5 -45 -4 -45 14 30 c9 17 15 40 16
51 0 12 8 24 19 27 10 2 101 4 202 5 195 0 1083 13 1086 15 4 5 337 7 333 3z
m-92 -95 c-3 -22 -8 -26 -39 -27 -20 -1 -41 -4 -46 -7 -5 -3 -23 -3 -39 2 -25
6 -29 12 -32 52 -4 45 2 47 22 7 6 -12 17 -23 25 -26 10 -3 12 3 6 27 -8 38 0
40 19 4 l15 -28 1 30 1 30 15 -27 c20 -37 27 -35 19 5 l-6 32 21 -24 c12 -15
20 -35 18 -50z m-696 9 c1 -53 -12 -66 -53 -54 -23 7 -33 16 -36 33 -5 32 -13
40 -13 14 0 -12 -8 -30 -17 -41 -22 -25 -62 -14 -64 18 -4 57 -1 72 11 65 6
-3 10 -14 10 -24 0 -10 6 -24 14 -31 12 -9 16 -5 22 25 6 34 8 36 43 33 31 -3
36 -7 39 -31 4 -32 22 -27 22 7 0 22 9 40 17 32 2 -2 4 -23 5 -46z m79 -20 c5
0 9 9 9 19 0 28 11 52 21 45 5 -3 9 -23 9 -44 0 -45 -25 -66 -63 -54 -12 4
-24 6 -26 5 -2 -2 -7 3 -12 11 -9 15 -1 56 15 77 9 11 14 7 25 -23 7 -20 18
-36 22 -36z m99 35 c14 -43 33 -46 26 -5 -5 36 11 51 20 16 15 -62 -13 -98
-61 -75 -29 15 -38 38 -28 77 8 33 30 27 43 -13z m270 -7 c0 28 28 29 32 0 2
-12 9 -23 17 -26 11 -4 12 3 7 34 -7 34 -6 36 8 25 17 -14 21 -58 8 -76 -4 -5
-44 -11 -88 -11 l-82 -2 5 42 c7 53 11 56 24 17 14 -41 35 -35 31 10 l-2 34
19 -35 c17 -30 20 -32 21 -12z m-1115 10 c-1 -13 0 -29 3 -36 7 -20 22 6 22
38 0 18 3 21 11 13 15 -15 5 -54 -21 -84 -17 -21 -21 -22 -30 -9 -13 19 -13
56 0 81 14 25 17 24 15 -3z m340 -36 c-18 -44 -51 -64 -66 -41 -5 8 -9 32 -9
53 0 42 8 44 15 6 8 -43 22 -42 39 1 11 28 20 39 27 32 7 -7 5 -24 -6 -51z
m50 28 c7 -31 23 -40 29 -17 14 45 17 50 27 40 7 -7 5 -23 -7 -52 -12 -31 -22
-41 -39 -41 -22 0 -35 29 -35 81 0 30 18 22 25 -11z m560 0 c18 -35 36 -32 29
6 -3 18 -1 25 8 22 19 -6 22 -72 5 -86 -11 -9 -23 -9 -51 3 -36 15 -44 33 -30
69 9 24 22 19 39 -14z m-860 -2 c-11 -34 -11 -36 0 -38 6 -1 14 12 19 29 11
38 27 41 20 4 -12 -63 -45 -83 -65 -39 -8 17 -8 29 0 45 16 28 34 27 26 -1z
m90 -3 c-4 -38 12 -40 30 -4 19 35 31 32 21 -5 -6 -26 -31 -56 -47 -56 -14 0
-30 50 -24 71 9 28 24 23 20 -6z m291 -30 c1 -8 -2 -17 -7 -21 -5 -3 -9 7 -9
22 0 27 12 26 16 -1z m-106 -15 c0 -5 -4 -10 -10 -10 -5 0 -10 5 -10 10 0 6 5
10 10 10 6 0 10 -4 10 -10z m870 -550 c0 -6 -34 -10 -87 -11 -49 0 -131 -2
-183 -4 -151 -5 -748 -18 -824 -17 -93 1 -98 12 -5 13 41 1 99 3 129 4 30 2
222 7 425 11 204 3 371 7 372 8 1 1 40 2 87 4 55 2 86 -1 86 -8z m6 -39 c-21
-5 -42 -14 -47 -22 -6 -11 -9 -10 -15 4 -5 14 -17 16 -73 13 -72 -4 -101 -13
-101 -28 0 -6 -7 -5 -16 3 -13 11 -14 9 -8 -17 4 -16 15 -48 25 -71 l18 -43
96 0 c102 0 107 3 80 50 l-14 25 -1 -26 c0 -29 -16 -39 -58 -38 -29 1 -24 3
21 13 16 4 27 13 27 23 0 23 -29 53 -52 53 -10 0 -18 5 -18 10 0 6 -16 10 -35
10 -19 0 -35 -3 -35 -8 0 -16 33 -54 54 -62 20 -8 20 -9 1 -9 -29 -1 -42 10
-60 52 l-15 37 78 0 78 0 30 -57 30 -58 152 -3 c152 -3 211 -16 84 -19 -37 0
-141 -4 -232 -7 -91 -3 -316 -8 -500 -12 -184 -3 -380 -7 -435 -9 -219 -6
-526 -7 -532 -1 -4 3 34 6 83 6 49 0 98 3 109 6 21 5 82 90 72 100 -2 3 -15
-11 -27 -31 -12 -20 -25 -34 -27 -31 -3 3 5 19 17 36 18 25 19 34 10 45 -9 11
-9 15 -1 15 6 0 11 -5 11 -11 0 -5 5 -7 11 -4 6 4 8 13 5 21 -3 8 -4 14 -2 14
3 0 12 3 22 7 17 6 17 5 1 -17 -23 -33 -22 -49 2 -24 17 19 45 22 115 15 4 -1
6 -18 2 -38 l-5 -38 19 40 c10 21 16 43 14 47 -3 4 -24 8 -46 8 -23 0 -39 2
-37 4 7 7 184 14 539 22 173 4 316 7 317 8 1 1 71 2 155 3 96 1 139 -1 114 -6z
m-1139 -27 c-3 -3 -12 -4 -19 -1 -8 3 -5 6 6 6 11 1 17 -2 13 -5z m1163 -3
c-29 -5 -35 -10 -37 -33 -1 -20 2 -25 13 -21 9 3 12 13 9 24 -5 16 -1 19 28
19 26 0 45 -9 77 -39 44 -40 46 -62 7 -60 -12 0 -16 3 -9 6 24 10 11 24 -18
19 -31 -4 -43 10 -14 16 14 3 14 6 -3 27 -13 16 -26 22 -36 18 -21 -8 -22 -27
-2 -27 8 0 15 -7 15 -16 0 -12 -6 -15 -26 -10 -22 6 -25 4 -19 -14 12 -37 -4
-21 -31 31 -14 28 -21 48 -15 44 6 -3 11 1 11 9 0 12 10 16 43 15 l42 -2 -35
-6z m-188 -28 c-6 -2 -9 -10 -6 -15 4 -7 2 -8 -5 -4 -13 9 -5 26 12 25 9 0 8
-2 -1 -6z m-5 -80 c17 -7 21 -12 11 -13 -29 0 -48 12 -63 41 -21 40 -18 49 5
14 11 -16 32 -35 47 -42z m67 51 c16 -15 13 -34 -4 -34 -5 0 -7 7 -3 16 5 14
1 16 -20 12 -27 -5 -38 6 -14 15 20 9 25 8 41 -9z m-1154 -4 c0 -5 -2 -10 -4
-10 -3 0 -8 5 -11 10 -3 6 -1 10 4 10 6 0 11 -4 11 -10z m1441 -17 c13 -16 12
-17 -3 -4 -17 13 -22 21 -14 21 2 0 10 -8 17 -17z m-1521 -53 c12 -8 11 -10
-7 -10 -13 0 -23 5 -23 10 0 13 11 13 30 0z m830 -149 c19 -6 49 -11 67 -11
35 0 63 -22 63 -49 0 -19 -48 -77 -56 -68 -3 3 6 17 21 31 21 21 24 29 15 46
-6 11 -16 20 -23 21 -45 4 -69 8 -121 24 -56 16 -121 17 -171 1 -11 -3 -6 1
10 9 33 17 135 15 195 -4z m333 2 c3 -10 8 -35 12 -56 5 -34 4 -38 -11 -35
-11 2 -21 16 -25 35 -3 18 -12 39 -18 47 -10 11 -8 15 6 19 30 8 32 8 36 -10z
m517 -28 c40 -21 66 -53 52 -67 -8 -8 -14 -5 -21 15 -11 29 -37 46 -96 64
l-40 13 40 -6 c21 -3 51 -12 65 -19z m-923 -28 c58 -30 100 -63 92 -72 -4 -3
-28 8 -55 24 -27 17 -68 41 -91 53 -24 12 -43 25 -43 30 0 9 32 -3 97 -35z
m915 -58 c62 -49 139 -30 92 23 -19 21 -19 21 3 7 29 -17 35 -33 20 -53 -23
-32 -66 -29 -121 6 -28 19 -75 44 -103 57 -29 14 -53 28 -53 32 0 13 124 -41
162 -72z m-940 -2 c53 -39 74 -62 97 -108 l29 -59 -20 -25 c-15 -20 -28 -25
-62 -25 -61 0 -101 53 -76 100 11 20 9 21 -22 18 -29 -3 -33 0 -36 22 -2 14
-10 29 -18 33 -14 8 -19 72 -8 101 8 20 24 12 116 -57z m842 7 c35 -26 46 -41
43 -55 -5 -17 -3 -18 16 -4 24 17 47 4 47 -27 0 -11 13 -32 29 -48 26 -27 27
-30 12 -43 -27 -24 -54 -34 -91 -33 -32 1 -36 4 -44 39 -8 32 -13 37 -38 37
-18 0 -28 5 -26 13 2 6 -7 22 -19 34 -17 17 -22 33 -21 72 0 46 2 51 23 51 12
0 43 -16 69 -36z m-1835 22 c-2 -2 -43 -6 -92 -9 -51 -3 -94 -10 -105 -18 -15
-13 -16 -12 -4 3 8 9 23 19 35 21 28 5 172 8 166 3z m1458 -109 l1 -82 -12 62
c-7 34 -18 68 -24 76 -13 16 -6 27 17 27 13 0 16 -15 18 -83z m-1410 67 c-2
-2 -14 -6 -26 -9 -12 -2 -59 -20 -106 -40 -47 -20 -90 -35 -97 -32 -8 3 -6 7
7 12 11 3 29 11 40 17 47 26 200 70 182 52z m-257 -45 c0 -6 -4 -7 -10 -4 -5
3 -10 11 -10 16 0 6 5 7 10 4 6 -3 10 -11 10 -16z m250 -19 c0 -19 -9 -39 -23
-53 -13 -12 -26 -30 -30 -40 -5 -13 -13 -16 -30 -12 -22 6 -25 2 -30 -31 -4
-21 -2 -43 4 -51 6 -7 9 -18 6 -25 -3 -8 -6 -6 -6 6 -1 11 -6 16 -15 13 -7 -3
-32 14 -55 40 -40 42 -42 46 -30 74 18 44 44 55 64 27 18 -25 15 -27 59 34 12
17 63 48 79 48 4 0 7 -14 7 -30z m1208 -112 c7 -13 14 -42 15 -66 1 -42 13
-55 23 -27 6 14 8 13 20 -2 22 -29 17 -40 -28 -62 -24 -11 -60 -37 -81 -57
-21 -20 -40 -34 -43 -32 -3 3 6 45 20 94 27 92 33 131 17 105 -6 -9 -10 4 -12
38 -2 29 -2 54 0 56 8 9 58 -25 69 -47z m-318 28 c0 -7 9 -25 20 -39 11 -14
20 -33 21 -44 0 -10 3 -13 6 -5 2 6 9 12 13 12 11 0 30 -65 30 -102 0 -16 4
-28 9 -28 5 0 7 16 5 35 -2 19 -6 50 -8 69 -3 28 -1 33 15 29 18 -5 33 -29 25
-42 -3 -4 -6 -48 -7 -97 -1 -49 -5 -98 -10 -109 -6 -17 -8 -17 -8 -2 -1 9 -5
17 -11 17 -5 0 -9 -5 -7 -11 2 -11 -29 -37 -36 -29 -3 3 -8 41 -11 85 -4 44
-11 84 -15 88 -5 5 -6 -9 -2 -30 8 -44 7 -130 -2 -139 -13 -14 -27 10 -27 47
0 21 -3 39 -8 39 -4 0 -6 -19 -4 -42 l4 -43 -22 21 c-14 14 -23 37 -25 64 -2
23 -6 44 -8 47 -5 4 -8 -13 -22 -117 -18 -144 -56 -253 -139 -405 -12 -22 -15
-47 -12 -95 3 -36 2 -56 0 -45 -10 35 -24 41 -25 10 -1 -17 -1 -33 0 -37 0 -5
-4 -8 -9 -8 -6 0 -10 23 -10 51 0 50 14 121 67 344 29 120 28 115 37 232 4 45
8 90 10 100 2 10 7 44 10 75 8 61 35 104 61 94 11 -4 15 -21 16 -63 1 -87 4
-102 24 -121 17 -16 17 -16 12 8 -3 14 -9 57 -12 96 -6 59 -4 73 10 87 20 20
45 22 45 3z m231 -13 c5 -88 -5 -185 -26 -240 -11 -30 -14 -33 -14 -15 -1 34
-25 22 -29 -14 -2 -16 -8 -33 -14 -39 -7 -7 -9 28 -6 113 3 79 10 127 18 135
9 10 11 -7 8 -78 -3 -82 -2 -91 14 -91 12 0 18 8 19 26 0 14 2 36 4 50 2 14 4
60 5 103 1 42 6 77 11 77 5 0 10 -12 10 -27z m1032 -43 c30 -33 71 -93 91
-133 l38 -72 -54 -48 c-100 -91 -178 -121 -215 -84 -21 20 -8 37 28 37 44 0
89 27 104 63 7 18 23 39 34 47 28 19 27 27 -10 45 -70 37 -144 141 -128 183
15 40 52 28 112 -38z m-353 -28 c13 -78 10 -198 -5 -195 -5 2 -13 31 -16 65
-4 35 -10 93 -14 131 -7 57 -6 67 8 67 11 0 18 -18 27 -68z m176 -23 c2 -45 6
-85 10 -88 3 -3 4 23 3 59 -1 36 -1 76 0 89 1 23 2 24 21 6 20 -18 98 -205
102 -246 5 -39 -19 -31 -40 13 -12 24 -30 81 -41 127 -11 46 -23 86 -27 90 -3
3 -4 -3 -1 -14 3 -11 9 -40 12 -65 6 -40 26 -131 41 -182 4 -12 0 -18 -11 -18
-19 0 -45 57 -45 100 0 16 -4 30 -8 30 -5 0 -4 -27 1 -60 5 -33 7 -63 3 -67
-11 -12 -25 11 -28 45 -1 19 -6 36 -10 38 -5 3 -5 -14 -1 -38 10 -63 9 -81 -3
-85 -6 -2 -11 2 -11 9 0 7 -2 48 -3 91 -2 42 -5 75 -8 72 -7 -6 -3 -153 5
-183 4 -18 8 -21 14 -10 7 10 9 10 9 0 0 -17 64 -43 87 -35 17 6 17 5 0 -14
-9 -11 -15 -22 -12 -25 3 -3 -2 -11 -11 -18 -12 -11 -20 -11 -35 -2 -23 15
-56 16 -64 2 -3 -5 3 -10 15 -10 11 0 52 -12 90 -27 51 -20 67 -30 59 -39 -5
-7 -7 -25 -4 -40 7 -34 7 -658 1 -691 -3 -13 -1 -23 4 -23 9 0 14 167 13 493
0 186 2 217 14 213 8 -3 20 -6 27 -6 20 0 12 -263 -14 -513 -5 -51 -12 -133
-15 -183 -7 -108 -9 -122 -17 -129 -3 -4 -5 10 -3 29 1 20 -2 36 -7 36 -4 0
-9 -22 -9 -50 -1 -27 -3 -54 -4 -60 -1 -5 -3 -21 -4 -35 -1 -18 -9 -29 -27
-35 -15 -6 -38 -19 -52 -30 -13 -11 -33 -20 -43 -20 -16 0 -19 8 -20 58 l-1
57 -8 -42 c-15 -74 -39 -101 -58 -67 -6 11 -11 13 -16 5 -13 -20 -52 -13 -63
12 -17 39 -16 142 1 156 19 16 21 42 4 38 -15 -3 -17 29 -16 378 0 143 0 282
0 309 -1 27 3 57 7 65 5 9 5 25 0 36 -4 11 -8 14 -8 7 -1 -7 -5 -11 -9 -8 -5
3 -9 26 -11 53 -8 129 -9 153 -10 221 0 40 -5 71 -10 68 -4 -3 -7 -23 -5 -45
4 -45 -20 -81 -40 -61 -14 14 -12 265 3 303 11 27 36 45 48 34 10 -10 22 -88
28 -172 8 -126 13 -145 36 -145 16 0 18 -4 11 -17 -15 -28 -22 -104 -9 -96 7
4 8 -7 5 -33 l-6 -39 18 39 c13 28 16 46 9 63 -5 15 -5 23 2 23 25 0 27 -47 5
-164 -7 -38 4 -117 15 -110 5 3 9 43 9 89 0 46 5 87 10 90 6 4 11 -6 11 -22 1
-15 2 -53 4 -83 1 -30 8 -79 15 -108 11 -41 11 -55 2 -61 -8 -5 -9 -17 -2 -41
15 -58 20 -91 26 -185 3 -49 8 -92 11 -95 6 -5 -4 268 -11 310 -3 14 -7 54
-11 90 -14 142 -32 232 -57 285 -20 45 -31 122 -18 130 4 3 5 35 2 73 -9 104
-8 135 6 139 8 3 12 -9 12 -43 0 -52 13 -53 15 -1 3 61 4 64 19 44 13 -17 14
-16 19 3 8 33 25 23 30 -17 3 -36 4 -36 5 8 2 43 10 65 20 54 3 -2 6 -41 8
-86z m-520 48 c5 -9 4 -9 -7 1 -27 25 -34 13 -32 -64 2 -63 -2 -85 -22 -131
-42 -90 -100 -130 -124 -85 -13 25 11 76 64 133 25 27 46 52 46 56 7 40 8 51
10 73 4 37 18 51 39 40 11 -6 22 -16 26 -23z m-1669 -3 c3 -9 -9 -91 -27 -184
-18 -93 -30 -174 -28 -181 2 -7 12 34 22 92 23 136 52 247 61 237 3 -3 -2 -38
-10 -79 -9 -41 -18 -90 -21 -109 -3 -19 -8 -38 -11 -42 -2 -5 1 -8 6 -8 6 0
11 11 11 25 0 14 1 27 2 30 1 2 9 38 17 80 18 83 37 100 34 29 -2 -26 1 -43 6
-39 5 3 13 -5 17 -17 4 -13 17 -36 30 -52 l23 -30 -41 -50 c-44 -55 -88 -96
-102 -96 -4 0 -6 26 -3 58 4 38 3 47 -2 27 -5 -16 -9 -47 -10 -68 -1 -26 -6
-39 -18 -43 -10 -3 -25 -9 -34 -14 -9 -5 -20 -6 -24 -2 -4 4 -16 7 -28 7 -21
0 -22 4 -18 75 4 95 -4 89 -13 -10 -7 -68 -32 -148 -43 -136 -3 3 5 53 17 111
12 59 19 109 17 112 -5 4 -21 -67 -48 -207 -13 -72 -35 -124 -49 -115 -23 14
47 320 111 487 36 92 69 130 38 43 -28 -80 -35 -141 -18 -161 9 -11 14 -44 14
-94 0 -43 3 -73 7 -67 5 7 8 62 7 122 0 61 2 117 5 125 3 8 8 32 11 53 6 44
29 93 47 100 24 10 39 7 45 -9z m1297 -71 c-3 -49 -7 -90 -10 -92 -6 -7 -4
131 2 157 12 42 14 22 8 -65z m-962 45 c-24 -24 -12 -31 13 -8 25 24 36 16 13
-9 -10 -11 -10 -13 0 -7 17 10 15 -19 -2 -34 -8 -6 -35 -44 -60 -84 -42 -67
-75 -96 -111 -96 -24 0 -18 17 29 77 27 34 50 78 57 106 8 33 14 44 20 35 7
-10 12 -8 24 10 9 12 19 22 23 22 3 0 1 -5 -6 -12z m1353 -8 c3 -5 1 -10 -4
-10 -6 0 -11 5 -11 10 0 6 2 10 4 10 3 0 8 -4 11 -10z m-1576 -134 c2 -37 -17
-2 -23 44 l-6 45 14 -35 c8 -19 15 -44 15 -54z m28 12 c-4 -38 -3 -55 2 -43 5
11 7 23 5 27 -3 4 0 9 6 13 6 4 10 -12 10 -41 0 -46 0 -47 -20 -29 -17 15 -19
28 -16 74 4 63 4 61 12 61 4 0 4 -28 1 -62z m1373 21 c0 -4 -11 -10 -25 -13
-13 -3 -55 -34 -92 -67 -37 -33 -87 -74 -111 -90 -50 -35 -112 -63 -112 -50 0
5 14 14 30 21 17 7 33 17 36 22 3 4 -15 -1 -39 -13 -55 -27 -103 -20 -138 18
l-24 26 30 -8 c17 -5 66 -9 110 -10 90 -2 95 1 197 94 31 28 67 57 82 64 27
15 56 18 56 6z m-1136 -14 c-4 -8 -2 -15 4 -15 5 0 15 7 22 15 15 18 36 19 46
4 4 -7 -4 -20 -17 -31 -20 -15 -21 -17 -4 -12 11 4 -3 -11 -31 -32 -29 -22
-71 -55 -95 -75 -24 -20 -61 -46 -82 -58 -34 -21 -38 -21 -44 -6 -12 32 11 69
58 95 66 36 71 41 108 88 34 44 44 52 35 27z m1303 -112 c5 -46 6 -83 2 -83
-3 0 -10 37 -14 81 -3 45 -9 89 -12 98 -4 14 -3 14 5 1 5 -8 14 -52 19 -97z
m-212 -138 c2 -110 7 -229 10 -265 13 -159 22 -246 35 -345 15 -114 21 -147
35 -202 14 -55 3 -72 -17 -28 -6 14 -14 25 -17 25 -20 0 -38 62 -40 134 -1 43
-4 82 -6 86 -5 8 -18 249 -19 333 0 26 -4 47 -9 47 -12 0 6 -382 27 -575 16
-145 17 -167 7 -161 -5 4 -8 12 -5 20 6 17 -44 66 -68 66 -18 0 -19 -6 -12
-92 3 -51 7 -102 9 -113 1 -11 3 -25 4 -31 1 -10 54 -30 104 -40 40 -7 29 -14
-24 -15 -68 -2 -82 0 -90 13 -4 6 -16 8 -27 6 -17 -5 -22 0 -25 21 -4 23 -4
22 -6 -6 0 -18 -3 -33 -6 -33 -14 0 -64 31 -67 42 -3 7 -9 8 -17 3 -11 -6 -8
-12 10 -26 l24 -19 -57 -1 c-114 -3 -116 -3 -98 15 8 8 31 19 50 23 19 5 36
15 36 21 1 7 2 50 3 96 1 84 1 84 30 94 17 6 37 24 45 40 15 30 40 42 85 42
22 0 23 -2 9 -12 -16 -13 -31 -81 -16 -72 4 3 8 13 8 23 0 10 9 26 20 36 19
17 20 31 20 233 0 119 -3 212 -7 209 -3 -4 -5 -92 -4 -195 2 -155 -1 -191 -13
-201 -24 -20 -28 2 -21 117 12 224 13 272 6 272 -4 0 -9 -31 -10 -68 -6 -224
-15 -292 -36 -292 -20 0 -26 28 -21 95 3 33 8 105 11 160 3 55 8 118 10 140 2
22 7 67 10 100 3 33 13 120 21 193 19 161 22 190 23 220 1 12 5 22 11 22 9 0
6 -137 -5 -240 -2 -19 -7 -82 -10 -140 -4 -58 -8 -122 -10 -142 -1 -21 1 -38
6 -38 5 0 9 26 10 58 0 56 3 91 14 162 2 19 7 80 10 135 6 127 16 229 21 234
2 2 4 -85 4 -194 0 -109 3 -196 6 -192 4 3 8 86 9 184 3 209 3 228 10 221 3
-2 7 -94 10 -203z m565 156 c0 -14 -18 -23 -30 -16 -6 4 -8 11 -5 16 8 12 35
12 35 0z m-1941 -98 c-63 -73 -87 -97 -125 -119 -23 -14 -49 -22 -58 -18 -23
9 -20 24 4 24 33 0 71 25 135 89 61 60 87 74 44 24z m1248 30 c-3 -5 -8 -33
-12 -63 -3 -30 -10 -82 -15 -115 -5 -33 -12 -78 -14 -100 -3 -22 -8 -60 -10
-85 -3 -25 -8 -54 -10 -65 -2 -11 -7 -49 -11 -85 -4 -36 -9 -72 -10 -80 -2 -8
-6 -51 -10 -95 -4 -44 -9 -89 -11 -100 -13 -63 -15 -153 -5 -159 19 -12 12
-35 -11 -41 -21 -6 -23 -12 -25 -91 -2 -90 -16 -124 -53 -124 -10 0 -23 -7
-30 -15 -7 -8 -24 -15 -38 -15 -25 0 -25 1 -19 60 4 34 11 69 16 79 7 12 6 22
-1 29 -17 17 0 29 51 36 25 3 50 11 55 17 11 11 -1 10 -76 -6 -40 -9 -46 17
-47 183 -1 88 -4 170 -6 183 -26 158 -40 430 -25 494 5 22 10 57 12 78 2 32
23 70 31 56 1 -2 7 -13 13 -24 22 -41 125 -28 199 25 37 27 72 40 62 23z m168
-159 c4 -60 11 -116 16 -124 7 -10 8 1 4 32 -11 91 -15 233 -6 218 8 -15 15
-47 26 -125 4 -22 13 -78 21 -125 19 -117 20 -114 -17 -93 -56 33 -65 57 -68
178 -2 61 -4 126 -5 145 -2 19 -1 39 2 45 10 16 19 -39 27 -151z m425 116 c10
-35 -12 -115 -53 -197 -32 -63 -33 -70 -21 -103 7 -19 13 -44 13 -55 0 -19 0
-19 -13 -2 -21 28 -26 20 -26 -40 0 -41 -3 -54 -10 -43 -24 37 8 349 46 438
17 41 54 42 64 2z m-1787 -102 c9 -6 9 -8 -1 -8 -10 0 -11 -52 -8 -247 3 -137
7 -264 10 -283 2 -19 7 -81 11 -138 6 -91 5 -102 -9 -96 -9 3 -17 16 -17 28
-1 11 -3 44 -5 71 -2 28 -5 192 -7 367 -1 174 -6 314 -10 311 -5 -3 -8 -168
-7 -367 2 -422 3 -389 -12 -384 -8 3 -12 18 -10 39 1 19 4 185 7 369 5 373 4
360 19 357 6 -1 13 20 16 48 l4 50 4 -55 c2 -30 9 -58 15 -62z m2227 87 c0
-28 -21 -33 -41 -9 -10 13 -10 17 2 25 25 15 39 10 39 -16z m-1015 -8 c-2 -7
-6 -39 -9 -72 -5 -52 -18 -183 -31 -310 -2 -22 -7 -71 -10 -110 -4 -38 -9 -83
-11 -100 -2 -16 -6 -72 -10 -122 -6 -83 -5 -93 11 -93 25 0 14 -34 -13 -38
-16 -2 -22 -8 -18 -18 3 -8 -1 -14 -9 -14 -16 0 -29 33 -21 58 6 18 13 75 21
157 9 92 16 160 25 220 11 76 17 125 25 200 3 33 13 104 21 157 8 54 14 100
14 104 0 3 4 3 10 -1 5 -3 7 -11 5 -18z m335 -9 c1 -34 8 -154 14 -221 2 -21
1 -35 -2 -32 -8 7 -8 11 -16 143 -4 62 -9 119 -13 127 -3 8 0 15 6 15 6 0 11
-15 11 -32z m622 -18 c3 -20 -1 -35 -11 -43 -12 -10 -14 -9 -8 6 6 15 3 17
-13 12 -25 -8 -27 20 -4 46 21 23 30 17 36 -21z m-2205 -7 c-3 -10 -5 -4 -5
12 0 17 2 24 5 18 2 -7 2 -21 0 -30z m-23 -6 c-6 -33 -13 -93 -19 -177 -4 -41
-8 -88 -10 -105 -6 -43 -5 -320 0 -384 l5 -54 -29 6 c-26 5 -29 4 -26 -13 3
-15 -2 -20 -16 -20 -20 0 -20 4 -14 83 3 45 8 93 10 107 2 14 7 72 10 130 6
117 10 155 27 251 6 36 9 72 6 80 -4 13 -34 -150 -44 -246 -3 -27 -7 -56 -10
-63 -4 -13 -16 -235 -18 -327 -1 -42 2 -50 17 -49 25 2 21 -13 -10 -33 -16 -9
-40 -28 -55 -41 l-27 -25 -10 25 c-6 16 -6 41 0 67 5 23 7 54 5 68 -3 14 -9
47 -13 72 -4 25 -8 48 -8 51 -5 18 -15 127 -19 190 -3 47 -13 93 -26 124 -18
40 -21 61 -17 110 9 102 33 142 66 112 10 -9 32 -16 50 -16 18 0 34 -6 37 -14
3 -7 -8 -44 -25 -81 -23 -49 -35 -66 -46 -61 -10 4 -15 -1 -15 -14 0 -11 5
-20 10 -20 15 0 65 83 86 141 10 28 25 56 34 64 8 8 25 23 38 35 l22 20 0 -30
c0 -16 -3 -30 -7 -30 -5 0 -8 -24 -8 -52 -1 -29 -4 -78 -8 -108 -15 -108 -16
-140 -7 -140 6 0 11 17 11 38 1 41 4 73 14 147 4 28 9 68 11 90 3 22 7 49 9
60 2 11 4 30 4 43 1 13 5 21 10 17 6 -3 8 -15 5 -28z m2286 -25 c-15 -5 -40
17 -40 36 0 12 6 10 26 -9 14 -13 20 -25 14 -27z m-15 -42 c-6 -9 -9 -9 -16 1
-10 17 0 34 13 21 6 -6 7 -16 3 -22z m25 -19 c-11 -22 -37 -34 -52 -25 -6 4 2
16 18 29 32 26 49 23 34 -4z m-2616 -123 c-13 -23 -37 -48 -46 -48 -14 0 -9
15 12 38 22 24 46 30 34 10z m1951 -213 c4 -99 9 -195 10 -212 1 -18 -1 -33
-5 -33 -4 0 -9 48 -10 108 -1 59 -3 125 -5 147 -7 85 -8 181 -1 174 2 -2 7
-85 11 -184z m-1553 93 c2 -38 0 -68 -4 -68 -4 0 -8 35 -7 78 1 90 6 85 11
-10z m-392 56 c0 -9 11 -27 25 -40 28 -26 36 -55 8 -33 -11 10 -17 11 -20 3
-4 -11 -63 40 -63 55 0 12 23 31 37 31 7 0 13 -7 13 -16z m401 -176 c0 -24 2
-50 4 -58 1 -8 6 -46 9 -85 4 -38 9 -79 12 -90 2 -11 6 -31 8 -45 2 -14 9 -54
16 -90 10 -55 6 -160 -5 -148 -2 2 -7 28 -10 58 -4 30 -8 57 -10 60 -1 3 -6
36 -10 75 -4 38 -8 72 -11 76 -2 3 -6 35 -9 70 -14 179 -15 219 -5 219 5 0 10
-19 11 -42z m444 -158 c5 -9 -15 -15 -37 -11 -18 3 -6 -17 13 -22 17 -5 19 -9
10 -24 -10 -19 -16 -20 -125 -14 -14 1 -17 6 -12 26 4 14 3 25 -1 26 -5 0 -19
2 -32 5 -34 6 -51 -12 -45 -49 4 -25 3 -28 -5 -17 -15 20 -14 55 2 68 22 19
221 29 232 12z m1116 -197 c1 -71 2 -170 4 -222 2 -52 0 -89 -4 -82 -4 6 -9
64 -10 129 -2 64 -4 159 -6 210 -1 50 1 92 6 92 5 0 9 -57 10 -127z m-1067 78
c56 -24 77 -65 70 -131 -15 -129 -129 -244 -217 -219 -99 28 -183 148 -179
257 3 65 32 94 117 116 43 11 163 -2 209 -23z m-613 -107 c1 -28 -2 -48 -7
-47 -5 1 -11 -8 -11 -19 -2 -20 -1 -20 12 -2 13 17 14 14 15 -31 0 -27 3 -67
6 -89 4 -23 2 -36 -4 -32 -5 3 -7 -5 -4 -19 5 -27 -7 -32 -38 -15 -13 7 -27 6
-44 -1 -36 -17 -50 -1 -75 81 -25 81 -26 110 -6 110 10 0 15 -10 15 -32 0 -22
3 -29 9 -20 4 8 7 27 5 43 -2 16 1 29 6 29 6 0 10 -12 10 -27 0 -16 5 -35 10
-43 6 -10 8 1 4 35 -4 28 -11 56 -16 63 -7 8 -7 12 1 12 18 0 39 -58 45 -124
6 -68 16 -87 16 -31 0 51 6 42 13 -19 4 -27 9 -51 12 -54 7 -8 7 0 -10 132
-13 106 -13 122 1 155 15 33 17 34 24 15 5 -12 9 -43 11 -70z m53 -7 c3 -12 6
-48 6 -79 0 -31 4 -59 9 -62 4 -3 6 22 5 56 -4 70 1 74 11 8 3 -25 9 -61 11
-80 3 -19 7 -48 10 -63 3 -21 -2 -34 -23 -53 l-28 -26 -18 23 c-11 14 -15 29
-11 43 9 25 9 27 0 95 -6 43 -5 52 6 46 10 -6 11 -5 1 6 -7 7 -13 37 -13 66 0
41 3 51 14 47 8 -3 17 -15 20 -27z m-107 -79 c-3 -8 -6 -5 -6 6 -1 11 2 17 5
13 3 -3 4 -12 1 -19z m44 -198 c24 -11 37 -20 29 -21 -133 -11 -134 -11 -103
23 20 22 21 22 74 -2z m2294 5 c26 -7 27 -9 10 -16 -32 -12 -147 -11 -140 2
16 26 70 32 130 14z m-2115 -7 c56 -18 50 -28 -15 -28 -39 0 -55 4 -55 13 0
30 13 32 70 15z m370 -20 c0 -4 -30 -8 -67 -7 -38 0 -60 4 -50 8 25 9 117 9
117 -1z m1988 -13 c-4 -4 -145 -9 -315 -10 -169 -2 -399 -5 -511 -7 -112 -1
-205 -5 -207 -8 -2 -3 230 -4 516 -2 464 2 518 1 513 -13 -4 -8 -16 -17 -28
-20 -11 -2 -30 -6 -41 -8 -11 -3 -5 -5 15 -6 34 -2 34 -3 10 -13 -21 -9 -22
-11 -8 -17 16 -5 16 -9 -3 -38 -22 -34 -46 -42 -67 -21 -9 9 -12 9 -12 1 0 -7
10 -15 23 -19 l22 -8 -25 -6 c-14 -4 -29 -5 -33 -2 -15 7 18 132 34 132 6 0 7
-6 4 -12 -4 -7 0 -5 8 5 8 9 19 17 25 17 6 0 13 4 16 8 3 4 -47 7 -110 7 -87
-2 -119 -5 -130 -17 -20 -20 -24 -119 -6 -126 11 -3 12 0 4 14 -14 28 8 108
32 112 10 2 23 -2 30 -9 8 -9 7 -11 -6 -6 -22 8 -48 -27 -48 -65 0 -28 29 -42
31 -15 0 9 2 9 6 -1 6 -15 23 -6 23 14 0 8 -9 14 -20 14 -28 0 -25 25 6 38 14
7 22 17 19 22 -4 6 10 10 35 10 25 0 43 -5 46 -14 8 -20 -20 -119 -35 -124
-11 -4 -11 0 0 19 6 13 15 38 20 56 6 30 4 34 -18 39 -13 4 -27 4 -30 0 -4 -3
1 -6 10 -6 9 0 17 -3 18 -7 0 -5 2 -16 4 -25 4 -20 -23 -60 -36 -53 -5 4 -9 0
-9 -7 0 -8 -9 -14 -19 -14 -11 0 -18 3 -15 7 5 9 -23 5 -32 -4 -4 -4 -18 -7
-31 -7 -24 0 -24 2 -19 68 3 42 1 58 -4 42 -4 -14 -8 -39 -9 -57 -1 -17 -6
-35 -13 -39 -8 -5 -9 6 -4 42 15 95 20 89 -61 92 -40 2 -73 -1 -74 -5 0 -4 -3
-29 -5 -56 -8 -86 -24 -99 -18 -14 l6 77 -64 1 c-97 2 -122 -1 -134 -16 -14
-19 -18 -115 -4 -115 5 0 10 19 10 43 0 65 6 68 96 65 l79 -3 -3 -42 c-1 -24
-7 -53 -12 -65 -8 -18 -9 -9 -7 37 l2 60 -63 3 c-66 3 -64 4 -77 -52 -6 -28
-6 -28 40 -24 25 2 45 0 45 -4 0 -9 -22 -12 -62 -9 -16 1 -28 -3 -28 -10 0 -8
15 -10 50 -7 28 3 52 7 54 9 2 2 6 19 8 38 3 30 0 34 -23 36 -14 2 -32 -1 -40
-5 -11 -8 -10 -12 6 -24 20 -15 20 -15 -3 -16 -20 0 -23 4 -20 28 3 24 7 27
46 30 50 4 57 -7 45 -69 l-8 -42 -78 -3 c-52 -1 -77 2 -78 10 -1 6 -1 41 0 77
l2 67 -93 1 c-51 0 -99 -3 -106 -7 -19 -13 -24 -129 -6 -136 23 -9 118 5 127
17 12 19 3 62 -14 65 -24 4 -71 -17 -64 -28 5 -8 11 -7 20 0 8 7 22 10 31 8
14 -2 12 -6 -9 -17 -31 -17 -57 -9 -57 17 0 33 72 51 110 27 6 -3 8 -21 5 -38
-12 -69 -9 -67 -101 -67 l-84 0 4 75 c3 53 1 75 -7 76 -47 4 -194 -4 -200 -10
-5 -5 -9 -35 -10 -67 l-2 -59 65 -1 c36 -1 70 3 75 7 6 4 12 25 13 45 l3 37
-47 -7 c-26 -3 -50 -9 -53 -12 -7 -7 21 -24 31 -18 4 3 8 0 8 -5 0 -14 -37
-14 -45 -1 -9 15 -22 12 -22 -5 0 -12 10 -15 41 -13 32 2 41 7 40 21 -2 23 18
17 22 -6 1 -10 -5 -21 -14 -26 -18 -10 -88 -8 -98 2 -3 3 -3 29 1 56 l7 51 73
0 c91 0 105 -11 99 -76 -5 -67 -14 -67 -14 -1 l0 57 -32 -1 c-31 -1 -31 -2 -8
-8 20 -6 25 -14 26 -41 2 -70 -3 -73 -97 -71 -46 1 -86 7 -90 12 -3 5 -3 29 1
53 3 24 3 51 -1 62 -4 10 -8 15 -9 9 -6 -66 -13 -121 -16 -124 -2 -2 -4 28 -4
68 l0 72 -102 -3 -103 -3 -3 -65 c-4 -88 -17 -95 -20 -12 -4 92 -12 92 -12 0
l0 -75 -89 -1 -89 -1 -7 45 c-8 53 5 75 44 73 20 -1 22 -2 6 -6 -33 -8 -45
-31 -33 -64 9 -27 14 -29 61 -30 29 0 60 -2 70 -4 12 -2 17 4 18 23 1 15 3 41
4 57 4 59 -4 63 -123 64 l-108 2 3 -38 c1 -21 4 -56 5 -78 l3 -40 -82 -3 -81
-3 -8 33 c-11 47 -11 51 -2 71 19 37 108 6 108 -38 0 -17 -25 -20 -35 -5 -3 6
-14 10 -23 10 -15 -1 -14 -3 3 -16 11 -8 31 -14 45 -12 20 2 25 9 26 36 1 40
-7 46 -75 48 -74 3 -83 -2 -77 -37 4 -16 9 -44 12 -61 4 -18 3 -30 -1 -26 -12
11 -33 128 -25 133 5 3 44 6 87 7 l78 2 12 -45 11 -44 1 46 c1 57 -2 59 -120
59 -102 0 -97 6 -75 -97 l13 -63 -89 0 c-71 0 -88 3 -88 15 0 11 6 13 23 7 18
-6 62 -7 121 -3 8 1 0 100 -11 128 -4 10 -30 13 -104 13 -110 0 -108 1 -89
-75 l8 -30 1 27 c2 48 17 38 27 -18 10 -54 2 -74 -12 -31 l-8 22 -6 -25 c-5
-20 -9 -12 -19 40 -7 36 -15 71 -17 78 -2 8 -29 12 -89 12 -102 0 -105 -4 -81
-91 9 -32 16 -61 16 -64 0 -3 -31 -5 -70 -5 -76 0 -79 2 -98 73 -10 35 -9 37
14 43 41 11 74 -3 74 -31 0 -14 -4 -25 -8 -25 -5 0 -8 10 -8 23 1 18 -5 23
-31 25 -30 3 -33 1 -33 -24 0 -27 0 -27 20 -9 20 18 20 18 18 -6 -3 -21 1 -24
32 -24 34 0 35 1 33 35 l-2 35 13 -40 c7 -22 11 -42 9 -44 -8 -11 -78 1 -96
16 -20 17 -20 17 -14 0 4 -10 7 -23 7 -28 0 -5 27 -9 60 -9 66 0 70 5 51 66
-5 16 -12 41 -15 57 l-6 27 -162 0 c-89 0 -158 3 -154 7 4 4 180 8 392 9 212
1 388 4 391 8 6 6 -123 8 -484 7 -95 0 -174 3 -177 7 -2 4 311 9 697 11 386 1
703 3 704 4 1 1 271 4 600 5 329 2 595 1 591 -3z m-2608 -13 c0 -5 -7 -9 -15
-9 -8 0 -12 4 -9 9 3 4 9 8 15 8 5 0 9 -4 9 -8z m-73 -8 c-3 -3 -12 -4 -19 -1
-8 3 -5 6 6 6 11 1 17 -2 13 -5z m2277 -66 c18 -39 17 -76 -4 -100 -29 -35
-71 -12 -85 45 -6 22 -3 33 14 48 11 11 21 24 21 29 0 25 40 8 54 -22z m-1943
-5 c20 -49 37 -123 30 -123 -6 0 -24 49 -47 133 -8 27 5 20 17 -10z m142 -77
c-8 -49 -25 -54 -65 -21 -51 43 -54 68 -12 109 14 14 18 13 49 -17 31 -30 34
-37 28 -71z m682 44 c0 -51 -9 -58 -71 -59 -29 -1 -44 4 -48 14 -12 31 17 62
44 45 9 -6 7 -10 -9 -15 -34 -11 -18 -30 25 -30 38 0 39 1 40 37 1 20 -4 39
-10 41 -6 2 -40 4 -76 3 l-65 -1 2 -65 c3 -79 -12 -62 -20 22 l-5 57 42 3 c22
2 66 1 96 -2 l55 -5 0 -45z m220 30 c11 -14 23 -26 27 -28 30 -13 -36 -92 -76
-92 -12 0 -35 17 -53 39 l-32 38 27 25 c31 29 62 47 77 45 5 -1 19 -13 30 -27z
m516 20 c13 -7 19 -21 19 -43 0 -41 -10 -77 -21 -77 -5 0 -6 6 -4 13 3 6 6 29
8 50 5 46 -7 54 -82 53 -51 -1 -55 -3 -62 -29 -4 -16 -5 -35 -2 -43 6 -17 64
-19 81 -2 9 9 12 8 12 -5 0 -9 -8 -17 -17 -18 -10 0 -35 -3 -56 -5 l-39 -5 3
48 c1 26 4 54 7 61 5 15 125 17 153 2z m-1813 -17 c6 -10 13 -33 17 -51 6 -27
3 -37 -16 -53 -12 -10 -29 -19 -38 -18 -9 0 -6 4 9 10 20 8 22 12 10 19 -12 8
-10 10 8 10 21 0 23 3 17 33 -9 42 -13 47 -39 57 l-21 9 22 0 c12 1 26 -7 31
-16z m100 10 c-41 -5 -42 -8 -29 -67 5 -21 6 -35 2 -30 -7 8 -31 84 -31 98 0
3 21 5 48 4 43 -1 44 -2 10 -5z m92 -3 c0 -5 -2 -10 -4 -10 -3 0 -8 5 -11 10
-3 6 -1 10 4 10 6 0 11 -4 11 -10z m415 -2 c3 -7 6 -31 8 -53 l2 -40 -50 0
c-46 0 -50 2 -50 24 0 13 7 27 15 29 13 5 13 3 1 -12 -18 -21 -12 -26 38 -33
40 -5 40 -5 35 23 -10 62 -11 63 -77 67 l-62 3 68 2 c46 1 69 -2 72 -10z
m-572 -30 c24 -58 29 -88 14 -88 -10 0 -13 8 -10 24 3 13 -2 37 -11 54 -17 32
-19 42 -11 42 3 0 11 -15 18 -32z m-58 2 c9 -10 15 -26 12 -35 -10 -25 -25
-17 -19 10 3 20 0 25 -17 25 -13 0 -21 -6 -21 -17 -1 -17 -1 -17 -11 0 -22 37
24 52 56 17z m605 -5 c13 -13 12 -17 -2 -31 -11 -11 -18 -12 -22 -5 -4 6 0 11
11 11 34 1 -18 30 -53 30 -31 0 -32 -1 -24 -30 5 -16 5 -30 0 -30 -14 0 -21
51 -9 66 15 18 77 11 99 -11z m460 3 c0 -10 0 -21 1 -25 0 -5 -8 -9 -18 -11
-15 -3 -16 -1 -3 7 12 8 12 13 2 23 -16 16 -15 25 3 25 8 0 15 -9 15 -19z
m1430 -107 c0 -4 -6 -9 -12 -10 -35 -6 -2442 -12 -2436 -6 3 3 329 9 724 11
395 3 719 6 720 7 7 6 1004 5 1004 -2z m-2465 -11 c3 -6 -4 -10 -17 -10 -18 0
-20 2 -8 10 19 12 18 12 25 0z m1340 -848 c-7 -8 -95 -11 -99 -4 -2 4 20 7 50
8 30 0 52 -1 49 -4z m300 1 c-121 -7 -253 -7 -248 0 2 4 70 6 151 5 81 -1 125
-3 97 -5z m-562 -10 c-46 -2 -120 -2 -165 0 -46 1 -9 3 82 3 91 0 128 -2 83
-3z m144 1 c-3 -3 -12 -4 -19 -1 -8 3 -5 6 6 6 11 1 17 -2 13 -5z m378 -26 c3
-3 -47 -5 -112 -5 l-118 0 95 6 c110 7 128 7 135 -1z m-243 -7 c-5 -3 -108 -6
-229 -7 -198 -1 -204 0 -68 5 227 9 309 10 297 2z m-492 -9 c0 -5 -7 -9 -15
-9 -8 0 -12 4 -9 9 3 4 9 8 15 8 5 0 9 -4 9 -8z m280 -42 c0 -6 -86 -9 -242
-8 l-243 2 240 6 c132 3 241 7 243 8 1 1 2 -2 2 -8z m163 0 c-2 -3 -36 -5 -74
-5 -38 -1 -64 2 -59 5 12 7 141 7 133 0z m42 0 c3 -6 -1 -7 -9 -4 -18 7 -21
14 -7 14 6 0 13 -4 16 -10z m42 4 c-3 -3 -12 -4 -19 -1 -8 3 -5 6 6 6 11 1 17
-2 13 -5z m158 0 c-46 -7 -125 -8 -125 -1 0 4 33 6 73 6 39 -1 63 -3 52 -5z
m158 -231 c-37 -5 -35 5 -35 -164 0 -92 -1 -96 -21 -95 -21 1 -21 6 -22 131
l-1 131 56 0 c30 1 40 -1 23 -3z m-857 -133 c1 -123 1 -126 -21 -128 -22 -1
-22 0 -22 129 -1 126 0 130 20 127 20 -3 21 -10 23 -128z"/>
<path d="M1685 4699 c-11 -17 1 -21 15 -4 8 9 8 15 2 15 -6 0 -14 -5 -17 -11z"/>
<path d="M2420 4070 c-35 -5 -35 -5 -37 -58 -2 -63 -8 -82 -25 -81 -10 0 -10
2 0 6 8 3 12 27 12 69 l0 64 -84 0 c-92 0 -102 -5 -113 -61 -6 -35 -32 -101
-33 -86 0 5 7 34 16 64 10 35 13 58 6 65 -5 5 -35 8 -67 6 -48 -2 -59 -6 -61
-21 -1 -11 -6 -22 -10 -25 -4 -4 -4 1 -1 11 15 40 -10 12 -35 -41 -15 -31 -25
-46 -22 -32 6 24 6 24 -13 8 -29 -26 -81 -34 -89 -14 -3 9 -11 13 -16 10 -21
-13 13 35 38 55 15 12 25 23 23 25 -9 8 -50 -15 -56 -31 -4 -10 -17 -33 -30
-52 -13 -19 -23 -38 -23 -43 0 -6 32 -8 78 -5 42 3 121 6 175 7 95 2 99 3 110
28 l12 25 5 -24 c6 -23 9 -24 103 -24 75 0 100 3 107 15 5 8 6 18 4 22 -3 4 0
8 5 8 6 0 11 -9 11 -20 0 -12 7 -20 18 -21 21 -1 204 -1 215 0 4 1 5 11 2 24
-2 12 -7 40 -10 62 -8 57 -15 76 -26 69 -5 -3 -7 -8 -5 -12 2 -4 6 -34 10 -68
l6 -60 -90 -3 c-82 -2 -90 -1 -89 16 0 10 3 13 6 6 6 -17 125 -17 141 -1 14
14 16 82 2 108 -8 15 -21 18 -72 17 -35 -1 -79 -4 -98 -7z m148 -22 c9 -12 16
-54 13 -85 -1 -9 -18 -12 -58 -10 -39 1 -58 6 -57 15 1 6 2 19 3 27 0 9 11 15
24 15 21 -1 21 -1 3 -15 -24 -18 -18 -25 28 -29 25 -3 36 0 37 10 5 73 8 69
-60 72 -72 3 -88 -6 -94 -51 -4 -31 -4 -31 -5 5 -2 26 3 40 16 47 25 15 137
14 150 -1z m-293 -5 c-50 -7 -50 -21 -1 -16 43 5 46 4 45 -18 -1 -17 -3 -19
-6 -6 -9 34 -66 19 -88 -24 -20 -37 -19 -37 13 -42 24 -4 24 -4 -7 -6 -36 -1
-35 -4 -16 69 6 24 6 24 -9 6 -19 -23 -20 -17 -4 19 10 22 17 25 57 24 34 -2
38 -3 16 -6z m76 -51 c-4 -22 -12 -37 -21 -38 -9 0 -10 1 -2 3 7 3 12 23 12
51 0 28 4 42 9 34 4 -7 5 -29 2 -50z m-261 41 c0 -14 -15 -29 -33 -36 -18 -7
-17 2 6 31 10 13 27 16 27 5z m460 -15 c0 -7 -5 -6 -13 1 -8 6 -18 7 -22 3 -5
-4 -5 -2 -1 5 8 14 36 6 36 -9z m-412 -11 c4 -22 -55 -79 -77 -75 -9 2 -18 14
-19 27 -3 16 0 22 10 18 7 -2 12 -10 11 -16 -4 -16 9 -13 36 10 18 15 21 23
13 31 -17 17 -15 30 5 26 10 -2 19 -11 21 -21z m-133 -57 c-23 -44 -29 -32 -9
16 9 21 19 34 21 27 2 -6 -3 -26 -12 -43z m285 40 c0 -5 -10 -10 -22 -10 -25
0 -14 -15 17 -23 l20 -5 -20 -1 c-29 -1 -49 14 -42 33 7 17 47 22 47 6z m10
-56 c0 -8 -19 -13 -24 -6 -3 5 1 9 9 9 8 0 15 -2 15 -3z"/>
<path d="M2650 4061 c-5 -11 -8 -26 -5 -33 2 -7 7 -30 10 -52 3 -21 8 -43 11
-48 7 -10 120 -5 131 5 8 9 -27 130 -41 139 -6 4 -30 8 -53 8 -32 0 -45 -5
-53 -19z m87 -26 c23 -20 25 -24 10 -25 -10 0 -20 7 -23 15 -8 19 -20 19 -27
1 -6 -15 13 -66 24 -66 4 0 9 9 12 20 3 11 10 20 15 20 16 0 -3 -55 -20 -58
-16 -3 -48 38 -53 67 -3 19 12 51 25 51 5 0 22 -11 37 -25z"/>
<path d="M2951 4043 c10 -2 19 -14 23 -26 3 -11 8 -18 11 -15 11 11 -15 48
-33 47 -15 -1 -15 -2 -1 -6z"/>
<path d="M1933 4025 c14 -10 15 -18 7 -39 -5 -14 -15 -26 -22 -25 -10 0 -10 2
0 6 6 2 12 13 12 24 0 25 -31 25 -53 1 -19 -20 -23 -37 -7 -27 6 3 10 -1 10
-11 0 -12 6 -15 23 -10 12 3 25 6 29 6 8 0 38 54 38 68 0 5 -12 12 -27 15 -24
5 -26 4 -10 -8z"/>
<path d="M3067 3999 c7 -7 15 -10 18 -7 3 3 -2 9 -12 12 -14 6 -15 5 -6 -5z"/>
<path d="M2345 3690 c-7 -12 -7 -12 23 -15 25 -3 30 10 6 19 -21 8 -22 8 -29
-4z"/>
<path d="M3210 3660 c0 -5 9 -10 19 -10 11 0 23 5 26 10 4 6 -5 10 -19 10 -14
0 -26 -4 -26 -10z"/>
<path d="M1440 3580 c0 -18 3 -19 20 -10 22 12 18 30 -6 30 -8 0 -14 -9 -14
-20z"/>
<path d="M2676 3363 c-6 -14 -5 -15 5 -6 7 7 10 15 7 18 -3 3 -9 -2 -12 -12z"/>
<path d="M2353 3430 c0 -25 2 -35 4 -22 2 12 2 32 0 45 -2 12 -4 2 -4 -23z"/>
<path d="M2391 3395 c1 -19 18 -51 18 -35 0 8 -4 22 -9 30 -5 8 -9 11 -9 5z"/>
<path d="M2359 3375 c-7 -13 1 -115 10 -115 3 0 5 21 3 48 -4 66 -7 79 -13 67z"/>
<path d="M2475 3254 c5 -51 17 -57 14 -6 -2 23 -6 42 -10 42 -4 0 -6 -16 -4
-36z"/>
<path d="M2215 3050 c3 -5 14 -10 23 -10 15 0 15 2 2 10 -20 13 -33 13 -25 0z"/>
<path d="M3443 3310 c0 -25 2 -35 4 -22 2 12 2 32 0 45 -2 12 -4 2 -4 -23z"/>
<path d="M3355 3328 c2 -7 6 -42 10 -78 11 -120 18 -160 27 -160 6 0 8 11 6
25 -3 13 0 26 6 29 6 2 4 5 -5 5 -11 1 -16 12 -17 34 -1 17 -4 41 -6 52 -3 11
-5 39 -5 63 -1 23 -5 42 -11 42 -5 0 -8 -6 -5 -12z"/>
<path d="M3431 3074 c0 -11 3 -14 6 -6 3 7 2 16 -1 19 -3 4 -6 -2 -5 -13z"/>
<path d="M3471 2787 c0 -64 4 -117 8 -117 7 0 2 222 -5 230 -3 2 -4 -49 -3
-113z"/>
<path d="M3530 2880 c0 -5 5 -10 11 -10 5 0 7 5 4 10 -3 6 -8 10 -11 10 -2 0
-4 -4 -4 -10z"/>
<path d="M3499 2863 c-3 -32 3 -358 7 -362 2 -2 4 80 4 182 0 103 -2 187 -5
187 -3 0 -5 -3 -6 -7z"/>
<path d="M3537 2468 c1 -215 5 -393 8 -396 3 -3 5 171 5 386 0 215 -3 393 -7
395 -5 3 -7 -171 -6 -385z"/>
<path d="M3310 2801 c0 -5 5 -13 10 -16 6 -3 10 -2 10 4 0 5 -4 13 -10 16 -5
3 -10 2 -10 -4z"/>
<path d="M3307 2724 c-8 -8 1 -24 14 -24 5 0 9 7 9 15 0 15 -12 20 -23 9z"/>
<path d="M3481 2644 c0 -11 3 -14 6 -6 3 7 2 16 -1 19 -3 4 -6 -2 -5 -13z"/>
<path d="M3481 2604 c0 -11 3 -14 6 -6 3 7 2 16 -1 19 -3 4 -6 -2 -5 -13z"/>
<path d="M3340 2583 c0 -22 2 -25 10 -13 13 20 13 40 0 40 -5 0 -10 -12 -10
-27z"/>
<path d="M3281 2554 c0 -11 3 -14 6 -6 3 7 2 16 -1 19 -3 4 -6 -2 -5 -13z"/>
<path d="M3356 2523 c-3 -3 -6 -25 -5 -47 1 -40 1 -40 8 -10 4 17 11 36 15 42
7 12 -8 25 -18 15z"/>
<path d="M3281 2504 c0 -11 3 -14 6 -6 3 7 2 16 -1 19 -3 4 -6 -2 -5 -13z"/>
<path d="M3501 2474 c0 -11 3 -14 6 -6 3 7 2 16 -1 19 -3 4 -6 -2 -5 -13z"/>
<path d="M3509 2418 c-5 -9 -5 -48 -1 -43 6 6 11 45 5 45 -2 0 -4 -1 -4 -2z"/>
<path d="M3395 2380 c4 -14 9 -55 12 -92 6 -73 21 -96 17 -25 -1 23 -3 56 -3
73 -1 16 -8 39 -17 50 -15 18 -15 18 -9 -6z"/>
<path d="M3312 2335 c1 -22 -6 -64 -15 -92 -9 -29 -12 -53 -6 -53 5 0 9 10 9
23 0 13 6 32 14 42 12 16 13 13 9 -31 -3 -34 -1 -45 6 -35 7 11 10 8 14 -15 3
-24 4 -21 7 14 1 23 2 51 2 62 0 11 -1 41 -2 68 -2 37 -4 41 -8 17 l-4 -30
-14 35 -13 35 1 -40z"/>
<path d="M3387 2303 c-4 -3 -7 -11 -7 -17 0 -6 5 -5 12 2 6 6 9 14 7 17 -3 3
-9 2 -12 -2z"/>
<path d="M3444 2155 c0 -49 1 -71 3 -48 2 23 2 64 0 90 -2 26 -3 8 -3 -42z"/>
<path d="M3407 2153 c-3 -32 -10 -75 -15 -95 -11 -43 -4 -49 17 -16 14 23 24
168 11 168 -4 0 -10 -26 -13 -57z"/>
<path d="M3570 2160 c0 -11 4 -20 8 -20 4 0 8 9 8 20 0 11 -4 20 -8 20 -4 0
-8 -9 -8 -20z"/>
<path d="M3312 2035 c0 -16 2 -22 5 -12 2 9 2 23 0 30 -3 6 -5 -1 -5 -18z"/>
<path d="M3437 2045 c-4 -8 -3 -16 1 -19 4 -3 9 4 9 15 2 23 -3 25 -10 4z"/>
<path d="M3536 2045 c4 -8 8 -15 10 -15 2 0 4 7 4 15 0 8 -4 15 -10 15 -5 0
-7 -7 -4 -15z"/>
<path d="M3433 1990 c-1 -11 2 -20 5 -20 4 0 8 9 9 20 1 11 -2 20 -5 20 -4 0
-8 -9 -9 -20z"/>
<path d="M3305 1950 c-3 -5 -1 -10 4 -10 6 0 11 5 11 10 0 6 -2 10 -4 10 -3 0
-8 -4 -11 -10z"/>
<path d="M1221 3408 c-14 -39 -39 -188 -30 -182 5 3 9 15 9 27 0 12 9 57 19
100 18 75 19 100 2 55z"/>
<path d="M1226 3318 c-4 -18 -9 -55 -11 -83 -4 -44 -3 -41 10 20 8 38 17 75
19 82 3 7 2 13 -3 13 -5 0 -12 -15 -15 -32z"/>
<path d="M1313 3212 c-22 -90 -25 -107 -18 -100 4 4 11 22 15 40 3 18 12 32
18 31 7 -2 9 10 5 35 -3 20 -7 38 -8 39 -1 2 -6 -19 -12 -45z"/>
<path d="M2581 3078 c-10 -35 -26 -116 -36 -183 -3 -22 -10 -65 -15 -95 -10
-58 -16 -102 -25 -185 -10 -88 -27 -159 -47 -202 -18 -39 -18 -63 1 -63 17 0
47 141 67 315 3 33 8 69 10 80 2 10 6 37 9 60 3 22 10 63 15 90 5 28 12 66 14
85 6 40 11 63 21 103 10 38 -1 34 -14 -5z"/>
<path d="M2539 3078 c-6 -11 -5 -46 1 -43 12 7 19 45 9 45 -5 0 -10 -1 -10 -2z"/>
<path d="M2456 3040 c-22 -11 -53 -20 -68 -20 -17 0 -27 -4 -23 -10 3 -5 15
-10 26 -10 22 0 94 35 104 50 8 13 7 13 -39 -10z"/>
<path d="M2476 2890 c-22 -44 -52 -92 -67 -107 -38 -37 -36 -50 2 -22 31 22
114 178 107 200 -2 5 -21 -27 -42 -71z"/>
<path d="M2438 2272 c-9 -37 -19 -76 -23 -87 -6 -19 -6 -19 6 -1 15 24 49 156
41 156 -4 0 -14 -30 -24 -68z"/>
<path d="M2381 2004 c0 -11 3 -14 6 -6 3 7 2 16 -1 19 -3 4 -6 -2 -5 -13z"/>
<path d="M1274 2918 c-10 -42 -8 -34 -19 -93 -5 -27 -9 -52 -10 -55 -2 -6 -17
-107 -20 -135 -2 -11 -6 -40 -10 -65 -3 -25 -8 -56 -10 -70 -2 -14 -6 -45 -10
-70 -4 -25 -9 -54 -11 -65 -5 -19 -4 -19 7 -2 6 11 13 33 16 50 2 18 8 57 13
87 6 30 12 74 15 98 3 23 7 60 10 83 3 22 14 90 25 151 11 61 18 113 16 115
-2 3 -8 -11 -12 -29z"/>
<path d="M1291 2593 c1 -65 5 -61 12 10 2 26 1 47 -4 47 -5 0 -9 -26 -8 -57z"/>
<path d="M1285 2521 c-3 -5 -2 -12 3 -15 5 -3 9 1 9 9 0 17 -3 19 -12 6z"/>
<path d="M1782 2230 c-18 -4 -36 -11 -39 -14 -10 -10 10 -59 26 -64 10 -3 12
0 7 14 -14 35 -11 39 32 42 32 2 42 0 42 -12 0 -8 -4 -18 -10 -21 -5 -3 -10
-13 -10 -22 0 -14 3 -14 20 2 21 19 27 60 10 70 -17 11 -44 12 -78 5z"/>
<path d="M1307 2208 c8 -57 13 -61 13 -10 0 22 -4 43 -9 46 -5 4 -7 -12 -4
-36z"/>
<path d="M1373 2022 c4 -34 11 -70 17 -80 10 -15 10 -15 6 3 -3 11 -8 45 -11
75 -9 77 -19 79 -12 2z"/>
<path d="M1412 1965 c0 -16 2 -22 5 -12 2 9 2 23 0 30 -3 6 -5 -1 -5 -18z"/>
<path d="M2785 1850 c-16 -7 -17 -9 -3 -9 9 -1 20 4 23 9 7 11 7 11 -20 0z"/>
<path d="M1940 1845 c0 -8 38 -11 55 -5 15 6 10 8 -17 8 -21 0 -38 -1 -38 -3z"/>
<path d="M2020 1845 c0 -8 38 -11 55 -5 15 6 10 8 -17 8 -21 0 -38 -1 -38 -3z"/>
<path d="M2373 1844 c7 -7 268 -7 275 1 3 3 -59 5 -138 5 -79 0 -141 -3 -137
-6z"/>
<path d="M2707 1789 c-9 -6 -17 -17 -17 -24 0 -11 6 -9 21 6 24 24 22 32 -4
18z"/>
<path d="M2750 1790 c-9 -6 -10 -10 -3 -10 6 0 15 5 18 10 8 12 4 12 -15 0z"/>
<path d="M3600 1770 c-12 -8 -9 -10 13 -10 21 0 27 -5 27 -22 1 -21 2 -21 11
-5 21 37 -13 62 -51 37z"/>
<path d="M1970 1733 c0 -47 13 -55 80 -57 53 -1 63 2 66 17 1 9 -2 17 -7 17
-5 0 -9 -6 -9 -14 0 -9 -11 -12 -37 -9 -39 4 -83 27 -83 42 0 5 10 11 23 15
30 8 37 7 35 -1 -2 -5 0 -9 5 -10 4 -2 7 -1 7 2 0 3 0 10 0 15 0 6 -18 10 -40
10 -37 0 -40 -2 -40 -27z"/>
<path d="M3411 1783 c4 -23 -3 -33 -21 -33 l-20 0 20 -20 c11 -11 20 -26 20
-32 1 -7 8 -1 16 15 8 15 20 27 27 27 7 0 4 5 -5 11 -10 5 -18 17 -18 24 0 8
-4 15 -10 15 -5 0 -9 -3 -9 -7z"/>
<path d="M1577 1759 c-8 -30 -8 -29 -1 -26 3 1 11 -7 17 -18 12 -20 12 -20 35
1 l23 22 -23 8 c-13 4 -28 14 -34 22 -9 13 -12 11 -17 -9z"/>
<path d="M2476 1748 c-26 -25 -27 -28 -8 -28 11 0 22 -7 26 -15 5 -13 9 -12
26 5 11 11 27 20 36 20 8 0 12 5 9 10 -4 6 -11 7 -17 4 -6 -4 -18 2 -27 12
-16 19 -17 19 -45 -8z"/>
<path d="M3310 4735 c0 -9 6 -12 15 -9 8 4 12 10 9 15 -8 14 -24 10 -24 -6z"/>
<path d="M63 363 l2 -108 80 -1 c95 0 105 2 105 27 0 20 -3 21 -87 20 l-53 0
0 62 0 63 129 -1 c71 0 133 -3 136 -7 4 -4 7 -61 7 -127 l0 -121 34 -1 c19 -1
43 -1 54 -1 52 0 50 -6 50 130 l0 127 128 -1 c70 -1 132 -2 137 -3 11 -1 12
-92 1 -110 -5 -7 -28 -10 -61 -8 -62 4 -78 -2 -73 -29 3 -17 13 -19 93 -19
l90 0 3 108 3 107 -185 0 -185 0 1 -67 c1 -182 -1 -193 -22 -193 -19 0 -20 7
-20 130 l0 130 -185 0 -184 0 2 -107z"/>
<path d="M883 363 l2 -108 93 -1 c90 0 92 0 92 23 0 24 -2 25 -97 26 l-43 0 0
58 c0 40 4 59 13 60 62 7 257 2 258 -6 1 -5 3 -57 4 -115 1 -58 3 -112 4 -120
1 -15 5 -15 113 -11 15 1 18 16 20 129 l3 127 120 0 c66 1 127 -1 135 -3 12
-2 16 -17 15 -60 l0 -57 -64 -2 c-35 -2 -66 -5 -69 -8 -9 -8 -11 -35 -4 -36
27 -6 169 -5 177 2 8 6 11 90 6 192 -1 16 -17 17 -185 17 l-185 0 3 -117 c3
-133 2 -143 -25 -143 -18 0 -19 9 -19 130 l0 130 -185 0 -184 0 2 -107z"/>
<path d="M3350 362 l0 -108 92 0 c80 1 91 3 94 19 3 22 -18 31 -66 29 -72 -3
-77 1 -75 65 l2 58 134 0 134 0 5 -129 5 -129 53 1 c28 0 59 1 67 1 13 1 15
22 15 129 l0 128 133 -1 132 0 3 -62 3 -61 -71 2 c-69 1 -70 1 -70 -25 l0 -25
88 1 c48 2 90 3 93 4 4 0 7 48 7 106 l1 105 -184 0 -185 0 0 -131 c0 -129 0
-130 -22 -127 -21 3 -22 6 -20 131 l1 127 -184 0 -185 0 0 -108z"/>
<path d="M4172 363 l3 -108 90 0 c86 0 90 1 93 23 4 24 0 25 -84 23 -51 -2
-52 -2 -56 31 -2 18 -1 47 2 63 l5 30 130 0 130 0 3 -127 c3 -143 -2 -135 88
-130 l54 4 0 127 0 127 135 -1 135 0 1 -27 c1 -36 1 -75 0 -87 -1 -6 -27 -10
-58 -9 -82 1 -83 0 -83 -25 0 -22 3 -23 95 -23 l95 0 0 108 0 108 -185 0 -184
0 0 -92 c1 -167 1 -168 -21 -168 -23 0 -22 -9 -21 143 l1 117 -185 0 -186 0 3
-107z"/>
<path d="M154 381 c-2 -2 -4 -13 -4 -23 0 -20 -1 -20 83 -20 l57 -1 0 -63 0
-63 -82 0 c-175 0 -168 1 -168 -23 0 -23 2 -23 123 -21 67 1 134 2 149 2 l28
1 -3 108 -2 107 -88 0 c-49 0 -90 -2 -93 -4z"/>
<path d="M561 278 c0 -94 2 -108 17 -109 23 -1 542 -1 565 0 15 1 17 13 17
109 l0 107 -90 1 c-80 0 -91 -2 -96 -19 -8 -27 -3 -29 70 -29 l66 0 0 -64 0
-63 -250 0 -250 1 0 65 c0 64 0 64 28 63 15 -1 46 -2 70 -1 37 1 42 4 42 24 0
22 -3 23 -94 22 l-94 0 -1 -107z"/>
<path d="M1389 385 c-1 0 -2 -48 -3 -107 -1 -69 2 -108 9 -109 59 -4 577 -1
581 4 5 5 7 89 5 182 l-1 30 -86 0 c-71 0 -89 -3 -98 -17 -15 -24 -8 -28 70
-30 l69 -3 1 -50 c0 -27 -2 -55 -4 -62 -2 -8 -72 -11 -251 -12 l-248 0 0 64 0
63 56 0 c81 0 81 0 81 25 0 22 -3 23 -90 23 -49 -1 -91 -1 -91 -1z"/>
<path d="M2209 355 c0 -16 -1 -65 -2 -108 -2 -76 -2 -77 23 -78 109 -3 562 0
566 4 10 10 9 207 -1 210 -5 2 -46 3 -90 3 -75 -1 -80 -2 -83 -24 -3 -17 2
-22 20 -23 13 0 43 -1 68 -2 l45 -2 0 -60 0 -60 -251 -2 -251 -2 -2 63 -2 63
70 -1 c57 -1 71 2 74 15 8 29 -6 35 -95 35 l-88 0 -1 -31z"/>
<path d="M3033 374 c-2 -6 -2 -55 -1 -108 l3 -99 265 1 c146 0 279 1 295 1
l31 1 0 103 c-1 56 -4 104 -8 108 -4 3 -45 5 -90 4 -78 0 -83 -2 -86 -23 -4
-24 -3 -25 81 -24 l57 1 0 -64 0 -64 -252 2 -252 2 -1 45 c-2 71 3 82 39 80
85 -5 103 -1 101 23 -2 21 -6 22 -90 22 -53 0 -89 -4 -92 -11z"/>
<path d="M3861 382 c-7 -2 -11 -42 -11 -110 l0 -107 287 2 c159 1 293 2 300 2
9 1 12 30 10 108 l-2 108 -90 0 c-86 0 -90 -1 -93 -22 -4 -25 6 -27 94 -24
l42 1 3 -42 c8 -95 31 -87 -252 -87 -146 0 -249 4 -250 10 0 5 0 29 0 54 0 25
0 50 0 56 1 6 11 10 24 9 12 -1 44 -2 70 -1 44 1 48 3 45 24 -3 21 -8 22 -85
22 -44 0 -86 -1 -92 -3z"/>
<path d="M4682 382 c-8 -2 -12 -38 -12 -108 l0 -104 33 -1 c32 -1 231 -1 255
0 6 1 12 10 12 21 0 18 -7 20 -62 21 -35 0 -90 1 -123 2 l-60 2 -3 61 -3 62
48 0 c94 0 95 0 91 24 -3 21 -8 23 -84 23 -45 1 -86 -1 -92 -3z"/>
</g>
</svg>
