<svg xmlns="http://www.w3.org/2000/svg" xmlns:xlink="http://www.w3.org/1999/xlink" width="531" zoomAndPan="magnify" viewBox="0 0 398.25 288.749996" height="385" preserveAspectRatio="xMidYMid meet" version="1.2"><defs><clipPath id="b9123a6645"><path d="M 207 16 L 385.558594 16 L 385.558594 191.785156 L 207 191.785156 Z M 207 16 "/></clipPath><clipPath id="b7d372dee7"><path d="M 11.265625 39 L 36 39 L 36 64 L 11.265625 64 Z M 11.265625 39 "/></clipPath><clipPath id="b96ac76d62"><path d="M 82 15 L 208 15 L 208 191.785156 L 82 191.785156 Z M 82 15 "/></clipPath></defs><g id="f98a60ccf3"><path style=" stroke:none;fill-rule:nonzero;fill:#3871c1;fill-opacity:1;" d="M 337.46875 154.695312 L 263.675781 154.695312 L 255.566406 146.578125 L 238.226562 146.578125 C 237.414062 145.328125 236.011719 144.503906 234.414062 144.503906 C 231.902344 144.503906 229.863281 146.546875 229.863281 149.0625 C 229.863281 151.582031 231.902344 153.621094 234.414062 153.621094 C 236.046875 153.621094 237.476562 152.753906 238.28125 151.460938 L 253.546875 151.460938 L 261.652344 159.582031 L 337.808594 159.582031 C 338.636719 160.703125 339.964844 161.433594 341.464844 161.433594 C 343.980469 161.433594 346.015625 159.394531 346.015625 156.875 C 346.015625 154.359375 343.980469 152.320312 341.464844 152.320312 C 339.738281 152.320312 338.242188 153.28125 337.46875 154.695312 "/><path style=" stroke:none;fill-rule:nonzero;fill:#3871c1;fill-opacity:1;" d="M 318.890625 41.152344 L 280.152344 41.152344 L 270.421875 50.894531 L 259.738281 50.894531 L 249.507812 40.652344 L 237.328125 40.652344 C 236.53125 39.332031 235.089844 38.449219 233.4375 38.449219 C 230.921875 38.449219 228.882812 40.488281 228.882812 43.003906 C 228.882812 45.523438 230.921875 47.5625 233.4375 47.5625 C 235.015625 47.5625 236.40625 46.757812 237.222656 45.535156 L 247.488281 45.535156 L 257.71875 55.777344 L 272.4375 55.777344 L 282.171875 46.035156 L 318.8125 46.035156 C 319.609375 47.339844 321.046875 48.214844 322.6875 48.214844 C 325.203125 48.214844 327.242188 46.171875 327.242188 43.65625 C 327.242188 41.136719 325.203125 39.097656 322.6875 39.097656 C 321.101562 39.097656 319.703125 39.914062 318.890625 41.152344 "/><g clip-rule="nonzero" clip-path="url(#b9123a6645)"><path style=" stroke:none;fill-rule:nonzero;fill:#3871c1;fill-opacity:1;" d="M 385.246094 121.683594 C 385.011719 119.570312 383.277344 117.863281 381.167969 117.664062 C 379.28125 117.484375 377.613281 118.460938 376.761719 119.960938 L 299.699219 119.960938 L 291.46875 111.722656 L 300.800781 102.378906 L 334.429688 102.378906 C 335.316406 103.804688 336.957031 104.707031 338.796875 104.511719 C 340.882812 104.285156 342.585938 102.589844 342.816406 100.5 C 343.121094 97.75 340.980469 95.421875 338.296875 95.421875 C 336.699219 95.421875 335.292969 96.246094 334.480469 97.496094 L 298.777344 97.496094 L 287.011719 109.277344 L 231.246094 109.277344 C 226.332031 109.277344 222.347656 105.289062 222.347656 100.367188 C 222.347656 95.445312 226.332031 91.453125 231.246094 91.453125 L 278.304688 91.453125 L 289.460938 80.277344 L 373.121094 80.277344 C 373.960938 81.460938 375.34375 82.222656 376.910156 82.191406 C 379.296875 82.148438 381.304688 80.160156 381.371094 77.765625 C 381.441406 75.1875 379.375 73.078125 376.820312 73.078125 C 375.121094 73.078125 373.640625 74.011719 372.859375 75.394531 L 287.441406 75.394531 L 276.28125 86.570312 L 231.246094 86.570312 C 226.332031 86.570312 222.347656 82.578125 222.347656 77.65625 C 222.347656 72.734375 226.332031 68.746094 231.246094 68.746094 L 299.4375 68.746094 L 309.984375 58.179688 L 336.625 58.179688 C 337.511719 59.605469 339.152344 60.507812 340.988281 60.3125 C 343.078125 60.085938 344.78125 58.390625 345.011719 56.300781 C 345.316406 53.550781 343.175781 51.222656 340.488281 51.222656 C 338.890625 51.222656 337.488281 52.046875 336.675781 53.296875 L 307.964844 53.296875 L 297.414062 63.859375 L 242.585938 63.859375 C 231.410156 63.859375 222.347656 54.789062 222.347656 43.59375 C 222.347656 32.402344 231.410156 23.324219 242.585938 23.324219 L 337.339844 23.324219 C 338.230469 24.730469 339.867188 25.617188 341.695312 25.414062 C 343.777344 25.183594 345.472656 23.488281 345.703125 21.40625 C 346.003906 18.652344 343.863281 16.324219 341.179688 16.324219 C 339.5625 16.324219 338.148438 17.171875 337.339844 18.441406 L 221.722656 18.441406 L 213.347656 26.542969 C 211.847656 27.996094 209.910156 28.71875 207.96875 28.71875 L 207.96875 191.695312 C 210.710938 191.695312 213.453125 190.789062 215.726562 188.980469 C 221.15625 184.648438 227.898438 182.289062 234.839844 182.289062 L 337.625 182.289062 C 338.515625 183.695312 340.152344 184.582031 341.980469 184.378906 C 344.0625 184.148438 345.757812 182.453125 345.988281 180.367188 C 346.292969 177.617188 344.152344 175.289062 341.464844 175.289062 C 339.847656 175.289062 338.4375 176.132812 337.625 177.40625 L 242.585938 177.40625 C 231.410156 177.40625 222.347656 168.332031 222.347656 157.140625 C 222.347656 145.945312 231.410156 136.871094 242.585938 136.871094 L 283.761719 136.871094 L 294.632812 147.757812 L 322.195312 147.757812 L 333.15625 136.777344 L 358.015625 136.777344 C 358.917969 138.160156 360.546875 139.023438 362.363281 138.816406 C 364.433594 138.578125 366.117188 136.886719 366.347656 134.8125 C 366.652344 132.0625 364.511719 129.730469 361.824219 129.730469 C 360.191406 129.730469 358.757812 130.597656 357.957031 131.894531 L 331.136719 131.894531 L 320.175781 142.875 L 296.652344 142.875 L 285.78125 131.988281 L 231.246094 131.988281 C 226.332031 131.988281 222.347656 127.996094 222.347656 123.074219 C 222.347656 118.152344 226.332031 114.164062 231.246094 114.164062 L 287.011719 114.164062 L 297.679688 124.84375 L 377.019531 124.84375 C 377.84375 126.003906 379.195312 126.757812 380.722656 126.757812 C 383.40625 126.757812 385.550781 124.433594 385.246094 121.683594 "/></g><path style=" stroke:none;fill-rule:nonzero;fill:#00adef;fill-opacity:1;" d="M 67.226562 95.09375 L 40.402344 95.09375 L 40.402344 68.234375 L 67.226562 68.234375 L 67.226562 95.09375 "/><g clip-rule="nonzero" clip-path="url(#b7d372dee7)"><path style=" stroke:none;fill-rule:nonzero;fill:#00adef;fill-opacity:1;" d="M 35.082031 63.714844 L 11.265625 63.714844 L 11.265625 39.867188 L 35.082031 39.867188 L 35.082031 63.714844 "/></g><path style=" stroke:none;fill-rule:nonzero;fill:#00adef;fill-opacity:1;" d="M 67.226562 35.105469 L 49.425781 35.105469 L 49.425781 17.277344 L 67.226562 17.277344 L 67.226562 35.105469 "/><path style=" stroke:none;fill-rule:nonzero;fill:#00adef;fill-opacity:1;" d="M 67.226562 134.574219 L 49.425781 134.574219 L 49.425781 116.746094 L 67.226562 116.746094 L 67.226562 134.574219 "/><g clip-rule="nonzero" clip-path="url(#b96ac76d62)"><path style=" stroke:none;fill-rule:nonzero;fill:#00adef;fill-opacity:1;" d="M 171.710938 134.574219 L 153.910156 134.574219 L 153.910156 116.746094 L 171.710938 116.746094 Z M 153.421875 104.007812 L 126.601562 104.007812 L 126.601562 77.148438 L 153.421875 77.148438 Z M 121.644531 69.207031 L 103.84375 69.207031 L 103.84375 51.382812 L 121.644531 51.382812 Z M 114.492188 121.835938 L 96.691406 121.835938 L 96.691406 104.007812 L 114.492188 104.007812 Z M 136.109375 26.191406 L 153.910156 26.191406 L 153.910156 44.019531 L 136.109375 44.019531 Z M 202.589844 26.542969 C 202.589844 26.542969 145.011719 0.246094 82.050781 27.847656 L 82.050781 72.753906 L 96.691406 72.753906 L 96.691406 90.578125 L 82.050781 90.578125 L 82.050781 134.574219 L 101.203125 134.574219 L 101.203125 161.433594 L 82.050781 161.433594 L 82.050781 191.695312 C 127.332031 168.867188 194.78125 184.648438 200.214844 188.980469 C 202.484375 190.789062 205.226562 191.695312 207.96875 191.695312 L 207.96875 28.71875 C 206.03125 28.71875 204.089844 27.996094 202.589844 26.542969 "/></g><g style="fill:#000000;fill-opacity:1;"><g transform="translate(16.394335, 251.895288)"><path style="stroke:none" d="M 1.5625 -18.921875 C 1.5625 -21.628906 2.097656 -24.171875 3.171875 -26.546875 C 4.242188 -28.921875 5.691406 -31 7.515625 -32.78125 C 9.335938 -34.570312 11.453125 -35.984375 13.859375 -37.015625 C 16.265625 -38.054688 18.820312 -38.578125 21.53125 -38.578125 C 23.15625 -38.578125 24.53125 -38.515625 25.65625 -38.390625 C 26.789062 -38.273438 27.769531 -38.128906 28.59375 -37.953125 C 29.425781 -37.785156 30.144531 -37.585938 30.75 -37.359375 C 31.363281 -37.140625 31.957031 -36.941406 32.53125 -36.765625 C 33.101562 -36.585938 33.707031 -36.4375 34.34375 -36.3125 C 34.988281 -36.195312 35.742188 -36.140625 36.609375 -36.140625 C 37.398438 -36.140625 37.953125 -36.300781 38.265625 -36.625 C 38.578125 -36.957031 38.875 -37.4375 39.15625 -38.0625 L 40.453125 -38.0625 L 40.453125 -25.21875 L 38.796875 -25.21875 C 38.023438 -26.914062 37.101562 -28.492188 36.03125 -29.953125 C 34.957031 -31.410156 33.757812 -32.675781 32.4375 -33.75 C 31.125 -34.820312 29.710938 -35.660156 28.203125 -36.265625 C 26.703125 -36.878906 25.132812 -37.1875 23.5 -37.1875 C 18.75 -37.1875 15.234375 -35.640625 12.953125 -32.546875 C 10.734375 -29.597656 9.625 -25.179688 9.625 -19.296875 C 9.625 -16.796875 9.835938 -14.414062 10.265625 -12.15625 C 10.703125 -9.90625 11.394531 -7.929688 12.34375 -6.234375 C 13.300781 -4.535156 14.53125 -3.179688 16.03125 -2.171875 C 17.539062 -1.171875 19.351562 -0.671875 21.46875 -0.671875 C 24.3125 -0.671875 26.90625 -1.25 29.25 -2.40625 C 31.59375 -3.570312 33.644531 -5.144531 35.40625 -7.125 C 36.9375 -8.820312 38.148438 -10.742188 39.046875 -12.890625 L 40.25 -12.890625 L 40.25 0.734375 L 39.421875 0.734375 C 39.035156 0.140625 38.59375 -0.46875 38.09375 -1.09375 C 37.59375 -1.71875 37.007812 -2.03125 36.34375 -2.03125 C 36 -2.03125 35.453125 -1.878906 34.703125 -1.578125 C 33.960938 -1.285156 32.984375 -0.972656 31.765625 -0.640625 C 30.554688 -0.316406 29.101562 -0.0078125 27.40625 0.28125 C 25.707031 0.582031 23.726562 0.734375 21.46875 0.734375 C 18.800781 0.734375 16.265625 0.210938 13.859375 -0.828125 C 11.453125 -1.867188 9.335938 -3.273438 7.515625 -5.046875 C 5.691406 -6.816406 4.242188 -8.894531 3.171875 -11.28125 C 2.097656 -13.675781 1.5625 -16.222656 1.5625 -18.921875 Z M 1.5625 -18.921875 "/></g></g><g style="fill:#000000;fill-opacity:1;"><g transform="translate(59.71335, 251.895288)"><path style="stroke:none" d="M 14.40625 -22.5625 C 13.082031 -22.5625 12.015625 -22.25 11.203125 -21.625 C 10.390625 -21.007812 9.765625 -20.179688 9.328125 -19.140625 C 8.898438 -18.097656 8.609375 -16.914062 8.453125 -15.59375 C 8.296875 -14.28125 8.21875 -12.929688 8.21875 -11.546875 C 8.21875 -7.765625 8.710938 -4.976562 9.703125 -3.1875 C 10.691406 -1.40625 12.273438 -0.515625 14.453125 -0.515625 C 16.640625 -0.515625 18.226562 -1.40625 19.21875 -3.1875 C 20.207031 -4.976562 20.703125 -7.765625 20.703125 -11.546875 C 20.703125 -15.492188 20.179688 -18.316406 19.140625 -20.015625 C 18.097656 -21.710938 16.519531 -22.5625 14.40625 -22.5625 Z M 1.5625 -11.546875 C 1.5625 -13.347656 1.898438 -15 2.578125 -16.5 C 3.253906 -18.007812 4.179688 -19.300781 5.359375 -20.375 C 6.535156 -21.457031 7.898438 -22.300781 9.453125 -22.90625 C 11.015625 -23.507812 12.679688 -23.8125 14.453125 -23.8125 C 16.222656 -23.8125 17.882812 -23.507812 19.4375 -22.90625 C 21 -22.300781 22.367188 -21.457031 23.546875 -20.375 C 24.734375 -19.300781 25.664062 -18.007812 26.34375 -16.5 C 27.019531 -15 27.359375 -13.347656 27.359375 -11.546875 C 27.359375 -9.742188 27.019531 -8.085938 26.34375 -6.578125 C 25.664062 -5.066406 24.734375 -3.773438 23.546875 -2.703125 C 22.367188 -1.628906 21 -0.785156 19.4375 -0.171875 C 17.882812 0.429688 16.222656 0.734375 14.453125 0.734375 C 12.679688 0.734375 11.015625 0.429688 9.453125 -0.171875 C 7.898438 -0.785156 6.535156 -1.628906 5.359375 -2.703125 C 4.179688 -3.773438 3.253906 -5.066406 2.578125 -6.578125 C 1.898438 -8.085938 1.5625 -9.742188 1.5625 -11.546875 Z M 1.5625 -11.546875 "/></g></g><g style="fill:#000000;fill-opacity:1;"><g transform="translate(88.627361, 251.895288)"><path style="stroke:none" d="M 10.5625 -17.0625 L 10.65625 -17.0625 C 11.113281 -17.71875 11.617188 -18.441406 12.171875 -19.234375 C 12.722656 -20.035156 13.335938 -20.773438 14.015625 -21.453125 C 14.691406 -22.128906 15.4375 -22.691406 16.25 -23.140625 C 17.0625 -23.585938 17.972656 -23.8125 18.984375 -23.8125 C 20.023438 -23.8125 20.96875 -23.472656 21.8125 -22.796875 C 22.664062 -22.117188 23.09375 -21.226562 23.09375 -20.125 C 23.09375 -19.21875 22.832031 -18.453125 22.3125 -17.828125 C 21.789062 -17.210938 21.023438 -16.90625 20.015625 -16.90625 C 19.390625 -16.90625 18.859375 -17 18.421875 -17.1875 C 17.992188 -17.375 17.585938 -17.570312 17.203125 -17.78125 C 16.828125 -17.988281 16.4375 -18.1875 16.03125 -18.375 C 15.632812 -18.570312 15.160156 -18.671875 14.609375 -18.671875 C 14.128906 -18.671875 13.65625 -18.476562 13.1875 -18.09375 C 12.71875 -17.71875 12.28125 -17.257812 11.875 -16.71875 C 11.476562 -16.175781 11.160156 -15.628906 10.921875 -15.078125 C 10.679688 -14.523438 10.5625 -14.09375 10.5625 -13.78125 L 10.5625 -3.015625 C 10.5625 -2.597656 10.613281 -2.273438 10.71875 -2.046875 C 10.820312 -1.828125 11.007812 -1.65625 11.28125 -1.53125 C 11.5625 -1.414062 11.953125 -1.335938 12.453125 -1.296875 C 12.953125 -1.265625 13.601562 -1.25 14.40625 -1.25 L 14.40625 0 L 0.9375 0 L 0.9375 -1.25 C 1.695312 -1.25 2.328125 -1.265625 2.828125 -1.296875 C 3.335938 -1.335938 3.726562 -1.414062 4 -1.53125 C 4.28125 -1.65625 4.472656 -1.828125 4.578125 -2.046875 C 4.679688 -2.273438 4.734375 -2.597656 4.734375 -3.015625 L 4.734375 -17.625 C 4.734375 -18.039062 4.601562 -18.378906 4.34375 -18.640625 C 4.082031 -18.898438 3.757812 -19.109375 3.375 -19.265625 C 3 -19.421875 2.601562 -19.53125 2.1875 -19.59375 C 1.769531 -19.664062 1.390625 -19.738281 1.046875 -19.8125 L 0.984375 -21.0625 C 2.753906 -21.375 4.375 -21.742188 5.84375 -22.171875 C 7.320312 -22.609375 8.875 -23.15625 10.5 -23.8125 L 10.5625 -23.8125 Z M 10.5625 -17.0625 "/></g></g><g style="fill:#000000;fill-opacity:1;"><g transform="translate(111.716964, 251.895288)"><path style="stroke:none" d="M 10.09375 -5.40625 C 10.09375 -4.957031 10.222656 -4.453125 10.484375 -3.890625 C 10.742188 -3.335938 11.113281 -2.8125 11.59375 -2.3125 C 12.082031 -1.8125 12.695312 -1.382812 13.4375 -1.03125 C 14.1875 -0.6875 15.03125 -0.515625 15.96875 -0.515625 C 17.007812 -0.515625 17.882812 -0.726562 18.59375 -1.15625 C 19.300781 -1.59375 19.867188 -2.1875 20.296875 -2.9375 C 20.734375 -3.6875 21.046875 -4.570312 21.234375 -5.59375 C 21.429688 -6.613281 21.53125 -7.710938 21.53125 -8.890625 C 21.53125 -10.554688 21.335938 -12.070312 20.953125 -13.4375 C 20.578125 -14.8125 20.023438 -15.988281 19.296875 -16.96875 C 18.566406 -17.957031 17.6875 -18.726562 16.65625 -19.28125 C 15.632812 -19.84375 14.503906 -20.125 13.265625 -20.125 C 12.597656 -20.125 12.015625 -19.984375 11.515625 -19.703125 C 11.015625 -19.429688 10.539062 -19.050781 10.09375 -18.5625 Z M 10.140625 -20.390625 C 10.765625 -20.941406 11.363281 -21.429688 11.9375 -21.859375 C 12.507812 -22.296875 13.097656 -22.660156 13.703125 -22.953125 C 14.304688 -23.253906 14.960938 -23.472656 15.671875 -23.609375 C 16.390625 -23.742188 17.195312 -23.8125 18.09375 -23.8125 C 19.757812 -23.8125 21.179688 -23.394531 22.359375 -22.5625 C 23.535156 -21.726562 24.492188 -20.6875 25.234375 -19.4375 C 25.984375 -18.195312 26.523438 -16.835938 26.859375 -15.359375 C 27.191406 -13.890625 27.359375 -12.515625 27.359375 -11.234375 C 27.359375 -9.566406 27.097656 -8.015625 26.578125 -6.578125 C 26.054688 -5.140625 25.300781 -3.875 24.3125 -2.78125 C 23.320312 -1.6875 22.132812 -0.828125 20.75 -0.203125 C 19.363281 0.421875 17.785156 0.734375 16.015625 0.734375 C 14.941406 0.734375 13.875 0.59375 12.8125 0.3125 C 11.757812 0.03125 10.851562 -0.421875 10.09375 -1.046875 L 10.09375 6.453125 C 10.09375 7.347656 10.320312 7.898438 10.78125 8.109375 C 11.25 8.316406 12.078125 8.4375 13.265625 8.46875 L 13.265625 9.71875 L 1.453125 9.71875 L 1.453125 8.46875 C 2.460938 8.4375 3.179688 8.316406 3.609375 8.109375 C 4.046875 7.898438 4.265625 7.347656 4.265625 6.453125 L 4.265625 -18.046875 C 4.265625 -18.460938 4.140625 -18.773438 3.890625 -18.984375 C 3.648438 -19.191406 3.375 -19.347656 3.0625 -19.453125 C 2.75 -19.554688 2.4375 -19.625 2.125 -19.65625 C 1.8125 -19.6875 1.585938 -19.722656 1.453125 -19.765625 L 1.453125 -21.015625 L 10.140625 -23.8125 Z M 10.140625 -20.390625 "/></g></g><g style="fill:#000000;fill-opacity:1;"><g transform="translate(140.630975, 251.895288)"><path style="stroke:none" d="M 10.140625 -23.09375 L 10.140625 -6.8125 C 10.140625 -6.257812 10.242188 -5.703125 10.453125 -5.140625 C 10.660156 -4.585938 10.972656 -4.085938 11.390625 -3.640625 C 11.804688 -3.191406 12.304688 -2.816406 12.890625 -2.515625 C 13.484375 -2.222656 14.175781 -2.078125 14.96875 -2.078125 C 16.15625 -2.078125 17.25 -2.300781 18.25 -2.75 C 19.257812 -3.207031 20.351562 -3.972656 21.53125 -5.046875 L 21.53125 -20.078125 C 21.53125 -20.867188 21.300781 -21.359375 20.84375 -21.546875 C 20.394531 -21.742188 19.476562 -21.84375 18.09375 -21.84375 L 18.09375 -23.09375 L 27.359375 -23.09375 L 27.359375 -5.453125 C 27.359375 -4.347656 28.3125 -3.625 30.21875 -3.28125 L 30.21875 -2.03125 C 28.789062 -1.71875 27.390625 -1.328125 26.015625 -0.859375 C 24.648438 -0.390625 23.15625 0.140625 21.53125 0.734375 L 21.53125 -3.53125 C 20.175781 -2.28125 18.753906 -1.253906 17.265625 -0.453125 C 15.773438 0.335938 14.25 0.734375 12.6875 0.734375 C 11.226562 0.734375 9.96875 0.515625 8.90625 0.078125 C 7.851562 -0.359375 6.988281 -0.9375 6.3125 -1.65625 C 5.632812 -2.382812 5.128906 -3.25 4.796875 -4.25 C 4.472656 -5.257812 4.3125 -6.335938 4.3125 -7.484375 L 4.3125 -20.125 C 4.3125 -20.914062 4.09375 -21.398438 3.65625 -21.578125 C 3.226562 -21.753906 2.460938 -21.84375 1.359375 -21.84375 L 1.359375 -23.09375 Z M 10.140625 -23.09375 "/></g></g><g style="fill:#000000;fill-opacity:1;"><g transform="translate(172.405188, 251.895288)"><path style="stroke:none" d="M 2.8125 -16.90625 C 2.8125 -18.082031 3.101562 -19.109375 3.6875 -19.984375 C 4.28125 -20.867188 5.023438 -21.585938 5.921875 -22.140625 C 6.828125 -22.703125 7.828125 -23.117188 8.921875 -23.390625 C 10.015625 -23.671875 11.0625 -23.8125 12.0625 -23.8125 C 13.382812 -23.8125 14.71875 -23.628906 16.0625 -23.265625 C 17.414062 -22.898438 18.820312 -22.441406 20.28125 -21.890625 L 20.28125 -15.03125 L 19.03125 -14.921875 C 18.75 -15.722656 18.390625 -16.570312 17.953125 -17.46875 C 17.523438 -18.375 17 -19.195312 16.375 -19.9375 C 15.75 -20.6875 15.007812 -21.3125 14.15625 -21.8125 C 13.3125 -22.3125 12.335938 -22.5625 11.234375 -22.5625 C 10.296875 -22.5625 9.460938 -22.234375 8.734375 -21.578125 C 8.003906 -20.921875 7.640625 -20.109375 7.640625 -19.140625 C 7.640625 -18.546875 7.957031 -17.976562 8.59375 -17.4375 C 9.238281 -16.90625 10.066406 -16.363281 11.078125 -15.8125 C 11.804688 -15.394531 12.488281 -15.035156 13.125 -14.734375 C 13.769531 -14.441406 14.378906 -14.148438 14.953125 -13.859375 C 15.523438 -13.566406 16.085938 -13.265625 16.640625 -12.953125 C 17.191406 -12.640625 17.765625 -12.273438 18.359375 -11.859375 C 19.222656 -11.265625 19.921875 -10.535156 20.453125 -9.671875 C 20.992188 -8.804688 21.265625 -7.800781 21.265625 -6.65625 C 21.265625 -5.269531 21.003906 -4.097656 20.484375 -3.140625 C 19.960938 -2.191406 19.25 -1.429688 18.34375 -0.859375 C 17.445312 -0.285156 16.410156 0.117188 15.234375 0.359375 C 14.054688 0.609375 12.828125 0.734375 11.546875 0.734375 C 10.953125 0.734375 10.28125 0.679688 9.53125 0.578125 C 8.789062 0.472656 8.054688 0.332031 7.328125 0.15625 C 6.597656 -0.0195312 5.882812 -0.21875 5.1875 -0.4375 C 4.5 -0.664062 3.914062 -0.882812 3.4375 -1.09375 L 2.96875 -8.9375 L 4.21875 -9.15625 C 4.800781 -6.519531 5.796875 -4.421875 7.203125 -2.859375 C 8.609375 -1.296875 10.4375 -0.515625 12.6875 -0.515625 C 13.90625 -0.515625 14.78125 -0.910156 15.3125 -1.703125 C 15.851562 -2.503906 16.125 -3.359375 16.125 -4.265625 C 16.125 -5.097656 15.789062 -5.816406 15.125 -6.421875 C 14.46875 -7.023438 13.644531 -7.585938 12.65625 -8.109375 C 11.675781 -8.628906 10.613281 -9.148438 9.46875 -9.671875 C 8.320312 -10.191406 7.253906 -10.769531 6.265625 -11.40625 C 5.273438 -12.050781 4.453125 -12.816406 3.796875 -13.703125 C 3.140625 -14.585938 2.8125 -15.65625 2.8125 -16.90625 Z M 2.8125 -16.90625 "/></g></g><g style="fill:#000000;fill-opacity:1;"><g transform="translate(195.494791, 251.895288)"><path style="stroke:none" d="M 12.109375 -13.109375 L 27.140625 -13.109375 L 19.390625 -29.28125 Z M 17.375 -33.234375 C 18.269531 -33.953125 19.003906 -34.585938 19.578125 -35.140625 C 20.148438 -35.703125 20.617188 -36.171875 20.984375 -36.546875 C 21.347656 -36.929688 21.632812 -37.242188 21.84375 -37.484375 C 22.050781 -37.734375 22.207031 -37.925781 22.3125 -38.0625 C 22.550781 -38.40625 22.773438 -38.578125 22.984375 -38.578125 C 23.085938 -38.578125 23.179688 -38.523438 23.265625 -38.421875 C 23.359375 -38.316406 23.539062 -38.003906 23.8125 -37.484375 L 39.15625 -5.828125 C 39.539062 -5.023438 39.882812 -4.363281 40.1875 -3.84375 C 40.5 -3.320312 40.863281 -2.894531 41.28125 -2.5625 C 41.695312 -2.238281 42.207031 -1.988281 42.8125 -1.8125 C 43.425781 -1.644531 44.234375 -1.507812 45.234375 -1.40625 L 45.296875 -1.40625 L 45.296875 0 L 26.984375 0 L 26.984375 -1.40625 C 28.441406 -1.40625 29.578125 -1.5625 30.390625 -1.875 C 31.203125 -2.1875 31.609375 -2.738281 31.609375 -3.53125 C 31.609375 -3.8125 31.546875 -4.132812 31.421875 -4.5 C 31.304688 -4.863281 31.171875 -5.21875 31.015625 -5.5625 C 30.859375 -5.90625 30.703125 -6.234375 30.546875 -6.546875 C 30.390625 -6.859375 30.257812 -7.101562 30.15625 -7.28125 L 28.1875 -11.28125 L 11.4375 -11.28125 L 9.9375 -7.703125 C 9.832031 -7.453125 9.703125 -7.132812 9.546875 -6.75 C 9.390625 -6.375 9.25 -5.992188 9.125 -5.609375 C 9 -5.234375 8.882812 -4.863281 8.78125 -4.5 C 8.675781 -4.132812 8.625 -3.847656 8.625 -3.640625 C 8.625 -3.398438 8.6875 -3.148438 8.8125 -2.890625 C 8.9375 -2.628906 9.171875 -2.382812 9.515625 -2.15625 C 9.859375 -1.925781 10.316406 -1.742188 10.890625 -1.609375 C 11.460938 -1.472656 12.21875 -1.40625 13.15625 -1.40625 L 13.15625 0 L 0.984375 0 L 0.984375 -1.40625 C 2.128906 -1.644531 3.054688 -1.972656 3.765625 -2.390625 C 4.484375 -2.804688 5.125 -3.378906 5.6875 -4.109375 C 6.257812 -4.835938 6.8125 -5.765625 7.34375 -6.890625 C 7.882812 -8.015625 8.539062 -9.425781 9.3125 -11.125 L 18.453125 -31.515625 C 18.347656 -31.785156 18.207031 -32.113281 18.03125 -32.5 C 17.863281 -32.882812 17.644531 -33.128906 17.375 -33.234375 Z M 17.375 -33.234375 "/></g></g><g style="fill:#000000;fill-opacity:1;"><g transform="translate(241.726015, 251.895288)"><path style="stroke:none" d="M 9.828125 -7.171875 C 9.828125 -6.273438 9.957031 -5.453125 10.21875 -4.703125 C 10.476562 -3.960938 10.816406 -3.3125 11.234375 -2.75 C 12.410156 -1.257812 13.988281 -0.515625 15.96875 -0.515625 C 17.007812 -0.515625 17.882812 -0.726562 18.59375 -1.15625 C 19.300781 -1.59375 19.867188 -2.1875 20.296875 -2.9375 C 20.734375 -3.6875 21.046875 -4.570312 21.234375 -5.59375 C 21.429688 -6.613281 21.53125 -7.710938 21.53125 -8.890625 C 21.53125 -10.484375 21.347656 -11.960938 20.984375 -13.328125 C 20.617188 -14.703125 20.078125 -15.890625 19.359375 -16.890625 C 18.648438 -17.898438 17.773438 -18.691406 16.734375 -19.265625 C 15.703125 -19.835938 14.523438 -20.125 13.203125 -20.125 C 12.234375 -20.125 11.109375 -19.65625 9.828125 -18.71875 Z M 1.203125 -36.25 C 2.648438 -36.414062 4.054688 -36.6875 5.421875 -37.0625 C 6.796875 -37.445312 8.265625 -37.867188 9.828125 -38.328125 L 9.828125 -20.390625 C 10.523438 -20.941406 11.175781 -21.429688 11.78125 -21.859375 C 12.382812 -22.296875 13.003906 -22.648438 13.640625 -22.921875 C 14.285156 -23.203125 14.960938 -23.421875 15.671875 -23.578125 C 16.390625 -23.734375 17.195312 -23.8125 18.09375 -23.8125 C 19.757812 -23.8125 21.179688 -23.394531 22.359375 -22.5625 C 23.535156 -21.726562 24.492188 -20.6875 25.234375 -19.4375 C 25.984375 -18.195312 26.523438 -16.835938 26.859375 -15.359375 C 27.191406 -13.890625 27.359375 -12.515625 27.359375 -11.234375 C 27.359375 -9.597656 27.097656 -8.050781 26.578125 -6.59375 C 26.054688 -5.144531 25.304688 -3.875 24.328125 -2.78125 C 23.359375 -1.6875 22.171875 -0.828125 20.765625 -0.203125 C 19.367188 0.421875 17.785156 0.734375 16.015625 0.734375 C 14.660156 0.734375 13.523438 0.617188 12.609375 0.390625 C 11.691406 0.160156 10.910156 -0.0820312 10.265625 -0.34375 C 9.628906 -0.601562 9.078125 -0.84375 8.609375 -1.0625 C 8.140625 -1.289062 7.660156 -1.40625 7.171875 -1.40625 C 6.898438 -1.40625 6.625 -1.265625 6.34375 -0.984375 C 6.0625 -0.710938 5.695312 -0.140625 5.25 0.734375 L 4 0.734375 L 4 -32.703125 C 4 -33.160156 3.90625 -33.523438 3.71875 -33.796875 C 3.53125 -34.078125 3.296875 -34.296875 3.015625 -34.453125 C 2.734375 -34.609375 2.425781 -34.71875 2.09375 -34.78125 C 1.769531 -34.851562 1.472656 -34.925781 1.203125 -35 Z M 1.203125 -36.25 "/></g></g><g style="fill:#000000;fill-opacity:1;"><g transform="translate(270.640014, 251.895288)"><path style="stroke:none" d="M 10.34375 -3.015625 C 10.34375 -2.179688 10.550781 -1.6875 10.96875 -1.53125 C 11.382812 -1.375 12.148438 -1.28125 13.265625 -1.25 L 13.265625 0 L 1.40625 0 L 1.40625 -1.25 C 2.65625 -1.25 3.488281 -1.34375 3.90625 -1.53125 C 4.320312 -1.71875 4.53125 -2.210938 4.53125 -3.015625 L 4.53125 -18.5625 C 4.53125 -18.800781 4.328125 -19.066406 3.921875 -19.359375 C 3.523438 -19.660156 2.632812 -19.847656 1.25 -19.921875 L 1.25 -21.15625 C 2.738281 -21.4375 4.21875 -21.800781 5.6875 -22.25 C 7.164062 -22.707031 8.71875 -23.226562 10.34375 -23.8125 Z M 3.75 -34.6875 C 3.75 -35.726562 4.117188 -36.59375 4.859375 -37.28125 C 5.609375 -37.976562 6.429688 -38.328125 7.328125 -38.328125 C 8.234375 -38.328125 9.054688 -37.976562 9.796875 -37.28125 C 10.546875 -36.59375 10.921875 -35.726562 10.921875 -34.6875 C 10.921875 -33.644531 10.546875 -32.773438 9.796875 -32.078125 C 9.054688 -31.390625 8.234375 -31.046875 7.328125 -31.046875 C 6.429688 -31.046875 5.609375 -31.390625 4.859375 -32.078125 C 4.117188 -32.773438 3.75 -33.644531 3.75 -34.6875 Z M 3.75 -34.6875 "/></g></g><g style="fill:#000000;fill-opacity:1;"><g transform="translate(285.097002, 251.895288)"><path style="stroke:none" d="M 17.375 -15.59375 C 17.851562 -15.59375 18.160156 -15.6875 18.296875 -15.875 C 18.441406 -16.070312 18.515625 -16.394531 18.515625 -16.84375 C 18.515625 -17.601562 18.382812 -18.332031 18.125 -19.03125 C 17.863281 -19.726562 17.5 -20.332031 17.03125 -20.84375 C 16.5625 -21.363281 16.003906 -21.78125 15.359375 -22.09375 C 14.722656 -22.40625 14.023438 -22.5625 13.265625 -22.5625 C 11.390625 -22.5625 9.992188 -21.894531 9.078125 -20.5625 C 8.160156 -19.226562 7.628906 -17.570312 7.484375 -15.59375 Z M 1.5625 -11.125 C 1.5625 -12.925781 1.863281 -14.597656 2.46875 -16.140625 C 3.070312 -17.679688 3.921875 -19.023438 5.015625 -20.171875 C 6.109375 -21.316406 7.398438 -22.207031 8.890625 -22.84375 C 10.378906 -23.488281 12.007812 -23.8125 13.78125 -23.8125 C 15.195312 -23.8125 16.546875 -23.5625 17.828125 -23.0625 C 19.117188 -22.5625 20.238281 -21.859375 21.1875 -20.953125 C 22.144531 -20.054688 22.910156 -19 23.484375 -17.78125 C 24.054688 -16.570312 24.34375 -15.238281 24.34375 -13.78125 L 7.390625 -13.78125 L 7.390625 -13.203125 C 7.390625 -12.023438 7.566406 -10.878906 7.921875 -9.765625 C 8.285156 -8.660156 8.820312 -7.675781 9.53125 -6.8125 C 10.25 -5.945312 11.117188 -5.253906 12.140625 -4.734375 C 13.160156 -4.210938 14.332031 -3.953125 15.65625 -3.953125 C 17.488281 -3.953125 19.03125 -4.332031 20.28125 -5.09375 C 21.53125 -5.851562 22.675781 -6.925781 23.71875 -8.3125 L 24.4375 -7.546875 C 23.332031 -4.804688 21.84375 -2.738281 19.96875 -1.34375 C 18.09375 0.0390625 15.785156 0.734375 13.046875 0.734375 C 11.179688 0.734375 9.535156 0.457031 8.109375 -0.09375 C 6.691406 -0.65625 5.492188 -1.457031 4.515625 -2.5 C 3.546875 -3.539062 2.8125 -4.785156 2.3125 -6.234375 C 1.8125 -7.691406 1.5625 -9.320312 1.5625 -11.125 Z M 1.5625 -11.125 "/></g></g><g style="fill:#000000;fill-opacity:1;"><g transform="translate(311.098815, 251.895288)"><path style="stroke:none" d="M 10.5625 -17.0625 L 10.65625 -17.0625 C 11.113281 -17.71875 11.617188 -18.441406 12.171875 -19.234375 C 12.722656 -20.035156 13.335938 -20.773438 14.015625 -21.453125 C 14.691406 -22.128906 15.4375 -22.691406 16.25 -23.140625 C 17.0625 -23.585938 17.972656 -23.8125 18.984375 -23.8125 C 20.023438 -23.8125 20.96875 -23.472656 21.8125 -22.796875 C 22.664062 -22.117188 23.09375 -21.226562 23.09375 -20.125 C 23.09375 -19.21875 22.832031 -18.453125 22.3125 -17.828125 C 21.789062 -17.210938 21.023438 -16.90625 20.015625 -16.90625 C 19.390625 -16.90625 18.859375 -17 18.421875 -17.1875 C 17.992188 -17.375 17.585938 -17.570312 17.203125 -17.78125 C 16.828125 -17.988281 16.4375 -18.1875 16.03125 -18.375 C 15.632812 -18.570312 15.160156 -18.671875 14.609375 -18.671875 C 14.128906 -18.671875 13.65625 -18.476562 13.1875 -18.09375 C 12.71875 -17.71875 12.28125 -17.257812 11.875 -16.71875 C 11.476562 -16.175781 11.160156 -15.628906 10.921875 -15.078125 C 10.679688 -14.523438 10.5625 -14.09375 10.5625 -13.78125 L 10.5625 -3.015625 C 10.5625 -2.597656 10.613281 -2.273438 10.71875 -2.046875 C 10.820312 -1.828125 11.007812 -1.65625 11.28125 -1.53125 C 11.5625 -1.414062 11.953125 -1.335938 12.453125 -1.296875 C 12.953125 -1.265625 13.601562 -1.25 14.40625 -1.25 L 14.40625 0 L 0.9375 0 L 0.9375 -1.25 C 1.695312 -1.25 2.328125 -1.265625 2.828125 -1.296875 C 3.335938 -1.335938 3.726562 -1.414062 4 -1.53125 C 4.28125 -1.65625 4.472656 -1.828125 4.578125 -2.046875 C 4.679688 -2.273438 4.734375 -2.597656 4.734375 -3.015625 L 4.734375 -17.625 C 4.734375 -18.039062 4.601562 -18.378906 4.34375 -18.640625 C 4.082031 -18.898438 3.757812 -19.109375 3.375 -19.265625 C 3 -19.421875 2.601562 -19.53125 2.1875 -19.59375 C 1.769531 -19.664062 1.390625 -19.738281 1.046875 -19.8125 L 0.984375 -21.0625 C 2.753906 -21.375 4.375 -21.742188 5.84375 -22.171875 C 7.320312 -22.609375 8.875 -23.15625 10.5 -23.8125 L 10.5625 -23.8125 Z M 10.5625 -17.0625 "/></g></g><g style="fill:#000000;fill-opacity:1;"><g transform="translate(334.188418, 251.895288)"><path style="stroke:none" d="M 10.03125 -31.875 L 10.03125 -23.09375 L 17.625 -23.09375 L 16.640625 -21.265625 L 10.03125 -21.265625 L 10.03125 -4.984375 C 10.03125 -3.046875 11.054688 -2.078125 13.109375 -2.078125 C 13.898438 -2.078125 14.648438 -2.3125 15.359375 -2.78125 C 16.078125 -3.25 16.78125 -3.8125 17.46875 -4.46875 L 17.46875 -2.59375 C 17.15625 -2.144531 16.722656 -1.722656 16.171875 -1.328125 C 15.617188 -0.929688 15.003906 -0.578125 14.328125 -0.265625 C 13.648438 0.046875 12.960938 0.289062 12.265625 0.46875 C 11.578125 0.644531 10.9375 0.734375 10.34375 0.734375 C 9.300781 0.734375 8.398438 0.59375 7.640625 0.3125 C 6.878906 0.03125 6.242188 -0.332031 5.734375 -0.78125 C 5.234375 -1.226562 4.851562 -1.726562 4.59375 -2.28125 C 4.34375 -2.84375 4.21875 -3.414062 4.21875 -4 L 4.21875 -21.265625 L 1.359375 -21.265625 L 1.359375 -22.515625 Z M 10.03125 -31.875 "/></g></g><g style="fill:#000000;fill-opacity:1;"><g transform="translate(351.505643, 251.895288)"><path style="stroke:none" d="M 14.40625 -22.5625 C 13.082031 -22.5625 12.015625 -22.25 11.203125 -21.625 C 10.390625 -21.007812 9.765625 -20.179688 9.328125 -19.140625 C 8.898438 -18.097656 8.609375 -16.914062 8.453125 -15.59375 C 8.296875 -14.28125 8.21875 -12.929688 8.21875 -11.546875 C 8.21875 -7.765625 8.710938 -4.976562 9.703125 -3.1875 C 10.691406 -1.40625 12.273438 -0.515625 14.453125 -0.515625 C 16.640625 -0.515625 18.226562 -1.40625 19.21875 -3.1875 C 20.207031 -4.976562 20.703125 -7.765625 20.703125 -11.546875 C 20.703125 -15.492188 20.179688 -18.316406 19.140625 -20.015625 C 18.097656 -21.710938 16.519531 -22.5625 14.40625 -22.5625 Z M 1.5625 -11.546875 C 1.5625 -13.347656 1.898438 -15 2.578125 -16.5 C 3.253906 -18.007812 4.179688 -19.300781 5.359375 -20.375 C 6.535156 -21.457031 7.898438 -22.300781 9.453125 -22.90625 C 11.015625 -23.507812 12.679688 -23.8125 14.453125 -23.8125 C 16.222656 -23.8125 17.882812 -23.507812 19.4375 -22.90625 C 21 -22.300781 22.367188 -21.457031 23.546875 -20.375 C 24.734375 -19.300781 25.664062 -18.007812 26.34375 -16.5 C 27.019531 -15 27.359375 -13.347656 27.359375 -11.546875 C 27.359375 -9.742188 27.019531 -8.085938 26.34375 -6.578125 C 25.664062 -5.066406 24.734375 -3.773438 23.546875 -2.703125 C 22.367188 -1.628906 21 -0.785156 19.4375 -0.171875 C 17.882812 0.429688 16.222656 0.734375 14.453125 0.734375 C 12.679688 0.734375 11.015625 0.429688 9.453125 -0.171875 C 7.898438 -0.785156 6.535156 -1.628906 5.359375 -2.703125 C 4.179688 -3.773438 3.253906 -5.066406 2.578125 -6.578125 C 1.898438 -8.085938 1.5625 -9.742188 1.5625 -11.546875 Z M 1.5625 -11.546875 "/></g></g></g></svg>