<svg version="1.1" viewBox="0.0 0.0 960.0 720.0" fill="none" stroke="none" stroke-linecap="square" stroke-miterlimit="10" xmlns:xlink="http://www.w3.org/1999/xlink" xmlns="http://www.w3.org/2000/svg"><clipPath id="p.0"><path d="m0 0l960.0 0l0 720.0l-960.0 0l0 -720.0z" clip-rule="nonzero"/></clipPath><g clip-path="url(#p.0)"><path fill="#000000" fill-opacity="0.0" d="m0 0l960.0 0l0 720.0l-960.0 0z" fill-rule="evenodd"/><path fill="#ffffff" d="m727.41205 507.30185l-386.2992 0l386.2992 -421.7323z" fill-rule="evenodd"/><path stroke="#000000" stroke-width="4.0" stroke-linejoin="round" stroke-linecap="butt" d="m727.41205 507.30185l-386.2992 0l386.2992 -421.7323z" fill-rule="evenodd"/><path fill="#ffffff" d="m690.7402 507.29922l0 -30.81366l36.59314 0l0 30.81366z" fill-rule="evenodd"/><path stroke="#000000" stroke-width="4.0" stroke-linejoin="round" stroke-linecap="butt" d="m690.7402 507.29922l0 -30.81366l36.59314 0l0 30.81366z" fill-rule="evenodd"/><path fill="#000000" fill-opacity="0.0" d="m524.8058 569.6457l0 -42.771667l59.77954 0l0 42.771667z" fill-rule="evenodd"/><path fill="#000000" d="m563.6808 547.17694q1.375 1.625 1.953125 3.125q0.5625 1.5 0.5625 3.234375q0 2.84375 -1.390625 4.375q-1.390625 1.53125 -3.5625 1.53125q-1.265625 0 -2.3125 -0.578125q-1.046875 -0.578125 -1.671875 -1.515625q-0.640625 -0.9375 -0.96875 -2.109375q-0.234375 -0.859375 -0.4375 -2.59375q-0.421875 -3.546875 -1.015625 -5.234375q-0.609375 -0.015625 -0.765625 -0.015625q-1.78125 0 -2.515625 0.828125q-1.0 1.125 -1.0 3.34375q0 2.0625 0.734375 3.046875q0.71875 0.984375 2.546875 1.453125l-0.390625 2.875q-1.828125 -0.390625 -2.953125 -1.28125q-1.140625 -0.90625 -1.75 -2.59375q-0.609375 -1.703125 -0.609375 -3.921875q0 -2.21875 0.53125 -3.59375q0.515625 -1.390625 1.3125 -2.03125q0.78125 -0.65625 1.984375 -0.921875q0.75 -0.140625 2.703125 -0.140625l3.90625 0q4.078125 0 5.15625 -0.1875q1.078125 -0.1875 2.078125 -0.75l0 3.0625q-0.90625 0.453125 -2.125 0.59375zm-6.546875 0.234375q0.65625 1.59375 1.109375 4.78125q0.25 1.8125 0.578125 2.5625q0.328125 0.75 0.953125 1.15625q0.625 0.40625 1.390625 0.40625q1.171875 0 1.953125 -0.890625q0.78125 -0.890625 0.78125 -2.59375q0 -1.6875 -0.734375 -3.0q-0.75 -1.328125 -2.03125 -1.953125q-0.984375 -0.46875 -2.921875 -0.46875l-1.078125 0z" fill-rule="nonzero"/><path fill="#000000" fill-opacity="0.0" d="m733.56433 353.16797l0 -42.771637l59.77948 0l0 42.771637z" fill-rule="evenodd"/><path fill="#000000" d="m774.56433 339.27734l0 2.703125l-23.859375 0l0 -2.921875l8.515625 0q-2.328125 -1.859375 -2.328125 -4.734375q0 -1.59375 0.640625 -3.015625q0.640625 -1.421875 1.8125 -2.34375q1.15625 -0.921875 2.8125 -1.4375q1.640625 -0.53125 3.5 -0.53125q4.453125 0 6.875 2.203125q2.421875 2.1875 2.421875 5.265625q0 3.0625 -2.5625 4.8125l2.171875 0zm-8.765625 0.03125q3.109375 0 4.484375 -0.859375q2.265625 -1.375 2.265625 -3.734375q0 -1.921875 -1.671875 -3.3125q-1.671875 -1.40625 -4.96875 -1.40625q-3.390625 0 -5.0 1.34375q-1.609375 1.34375 -1.609375 3.25q0 1.90625 1.671875 3.3125q1.671875 1.40625 4.828125 1.40625z" fill-rule="nonzero"/><path fill="#000000" fill-opacity="0.0" d="m482.79004 298.67715l0 -42.771637l59.77954 0l0 42.771637z" fill-rule="evenodd"/><path fill="#000000" d="m517.4619 276.2084l0.375 -2.890625q2.96875 0.46875 4.65625 2.421875q1.6875 1.9375 1.6875 4.78125q0 3.546875 -2.3125 5.703125q-2.328125 2.15625 -6.65625 2.15625q-2.796875 0 -4.890625 -0.921875q-2.109375 -0.9375 -3.15625 -2.828125q-1.046875 -1.90625 -1.046875 -4.125q0 -2.828125 1.421875 -4.609375q1.421875 -1.796875 4.046875 -2.296875l0.4375 2.84375q-1.734375 0.40625 -2.609375 1.453125q-0.890625 1.03125 -0.890625 2.484375q0 2.21875 1.59375 3.609375q1.578125 1.375 5.015625 1.375q3.484375 0 5.0625 -1.328125q1.578125 -1.34375 1.578125 -3.484375q0 -1.734375 -1.0625 -2.890625q-1.0625 -1.15625 -3.25 -1.453125z" fill-rule="nonzero"/><path fill="#000000" fill-opacity="0.0" d="m379.1468 465.8042c7.174591 1.678894 37.075348 2.7385864 43.047455 10.073364c5.9720764 7.3347473 -6.0123596 28.279327 -7.2148438 33.93521" fill-rule="evenodd"/><path stroke="#000000" stroke-width="4.0" stroke-linejoin="round" stroke-linecap="butt" d="m379.1468 465.8042c7.174591 1.678894 37.075348 2.7385864 43.047455 10.073364c5.9720764 7.3347473 -6.0123596 28.279327 -7.2148438 33.93521" fill-rule="evenodd"/><path fill="#000000" fill-opacity="0.0" d="m91.58268 126.00787l326.3937 0l0 164.81891l-326.3937 0z" fill-rule="evenodd"/><path fill="#ffffff" d="m163.78262 135.00787l17.799988 0l0 48.0l-17.799988 0l0 -48.0z" fill-rule="nonzero"/><path fill="#000000" d="m107.17643 173.97037q-1.3125 0 -2.5625 -0.328125q-1.234375 -0.3125 -2.234375 -1.03125q-0.359375 -0.609375 -0.515625 -1.875q-0.15625 -1.28125 -0.125 -2.6875q0 -0.484375 0.796875 -0.484375q0.328125 0 0.5625 0.203125q0.25 0.203125 0.28125 0.40625q0.765625 1.671875 1.765625 2.859375q1.0 1.171875 2.390625 1.171875q1.09375 0 1.640625 -0.65625q0.5625 -0.65625 0.5625 -1.5q0 -1.046875 -0.828125 -1.734375q-0.8125 -0.703125 -1.96875 -1.3125q-1.15625 -0.59375 -2.203125 -1.34375q-1.03125 -0.765625 -1.703125 -1.828125q-0.65625 -1.0625 -0.65625 -2.546875q0 -1.5625 0.859375 -2.71875q0.859375 -1.15625 2.3125 -1.8125q1.46875 -0.65625 3.265625 -0.65625q1.328125 0 2.4375 0.296875q1.125 0.296875 1.53125 0.578125q0.3125 0.390625 0.515625 1.5q0.203125 1.09375 0.203125 2.421875q0 0.4375 -0.71875 0.4375q-0.28125 0 -0.59375 -0.203125q-0.296875 -0.203125 -0.375 -0.40625q-0.515625 -1.546875 -1.34375 -2.328125q-0.8125 -0.78125 -1.8125 -0.78125q-0.875 0 -1.59375 0.5625q-0.71875 0.546875 -0.71875 1.515625q0 0.84375 0.765625 1.5q0.78125 0.65625 1.953125 1.296875q2.59375 1.359375 3.703125 2.625q1.125 1.25 1.125 3.34375q0 2.59375 -1.703125 4.0625q-1.6875 1.453125 -5.015625 1.453125zm16.243744 0q-2.15625 0 -3.859375 -1.140625q-1.703125 -1.140625 -2.6875 -3.125q-0.96875 -1.984375 -0.96875 -4.5q0 -2.515625 1.15625 -4.578125q1.15625 -2.0625 3.15625 -3.28125q2.0 -1.21875 4.40625 -1.21875q1.71875 0 3.078125 0.75q1.3593674 0.734375 2.1718674 1.984375q0.828125 1.234375 0.828125 2.78125q0 1.53125 -1.234375 1.53125l-7.9999924 0q-0.5625 0 -0.828125 0.328125q-0.25 0.3125 -0.25 1.0625q0 1.53125 0.671875 2.796875q0.6875 1.25 1.84375 1.96875q1.15625 0.71875 2.671875 0.71875q1.171875 0 2.140625 -0.4375q0.9843674 -0.4375 1.9531174 -1.203125q0.15625 -0.125 0.296875 -0.21875q0.140625 -0.09375 0.25 -0.09375q0.40625 0 0.40625 0.515625q0 0.4375 -0.328125 1.203125q-0.390625 1.0 -1.328125 1.984375q-0.9375 0.96875 -2.3437424 1.578125q-1.40625 0.59375 -3.203125 0.59375zm-1.953125 -12.484375l2.390625 0q1.125 0 1.5625 -0.03125q0.4375 -0.046875 0.796875 -0.171875q0.203125 -0.078125 0.328125 -0.390625q0.125 -0.328125 0.125 -0.71875q0 -1.078125 -0.75 -1.765625q-0.734375 -0.6875 -1.8125 -0.6875q-0.84375 0 -1.59375 0.46875q-0.734375 0.453125 -1.203125 1.203125q-0.453125 0.734375 -0.40625 1.53125q0 0.5625 0.5625 0.5625zm11.83622 12.046875q-0.28125 0 -0.546875 -0.140625q-0.25 -0.140625 -0.25 -0.421875q0 -0.328125 0.28125 -0.5q0.28125 -0.1875 0.640625 -0.296875q0.59375 -0.203125 1.046875 -0.453125q0.46875 -0.265625 0.46875 -1.078125l0 -9.15625q0 -0.875 -0.265625 -1.46875q-0.25 -0.609375 -0.96875 -0.765625q-0.171875 -0.046875 -0.3125 -0.203125q-0.140625 -0.15625 -0.140625 -0.515625q0 -0.5625 0.40625 -0.6875q1.359375 -0.3125 2.96875 -0.84375q1.625 -0.546875 2.796875 -1.15625q0.15625 -0.078125 0.34375 -0.1875q0.203125 -0.125 0.375 -0.125q0.234375 0 0.296875 0.140625q0.0625 0.140625 0.0625 0.328125q0 0.328125 -0.109375 1.03125q-0.09375 0.6875 -0.09375 1.25q0 0.171875 0.015625 0.375q0.03125 0.1875 0.0625 0.234375q1.359375 -1.328125 2.75 -2.046875q1.40625 -0.71875 3.25 -0.71875q2.078125 0 3.5 1.546875q1.421875 1.53125 1.421875 4.171875l0 8.796875q0 0.8125 0.453125 1.078125q0.46875 0.25 1.0625 0.453125q0.328125 0.109375 0.5625 0.296875q0.234375 0.171875 0.234375 0.5q0 0.28125 -0.21875 0.421875q-0.21875 0.140625 -0.453125 0.140625q-0.796875 0 -1.5 -0.0625q-0.703125 -0.0625 -1.359375 -0.09375q-0.65625 -0.046875 -1.375 -0.046875q-0.6875 0 -1.375 0.046875q-0.671875 0.03125 -1.359375 0.09375q-0.671875 0.0625 -1.46875 0.0625q-0.25 0 -0.46875 -0.140625q-0.21875 -0.140625 -0.21875 -0.421875q0 -0.328125 0.234375 -0.5q0.25 -0.1875 0.5625 -0.296875q0.609375 -0.203125 1.0 -0.453125q0.40625 -0.265625 0.40625 -1.078125l0 -7.953125q0 -1.515625 -0.703125 -2.375q-0.703125 -0.859375 -1.859375 -0.90625q-0.875 0 -1.5625 0.28125q-0.671875 0.28125 -1.390625 0.765625q-0.15625 0.15625 -0.25 0.359375q-0.078125 0.1875 -0.078125 0.390625l0 9.4375q0 0.8125 0.4375 1.078125q0.453125 0.25 1.0 0.453125q0.8125 0.234375 0.8125 0.796875q0 0.234375 -0.203125 0.40625q-0.203125 0.15625 -0.484375 0.15625q-0.796875 0 -1.484375 -0.0625q-0.671875 -0.0625 -1.28125 -0.09375q-0.59375 -0.046875 -1.3125 -0.046875q-0.6875 0 -1.390625 0.046875q-0.6875 0.03125 -1.4375 0.09375q-0.734375 0.0625 -1.53125 0.0625z" fill-rule="nonzero"/><path fill="#000000" fill-opacity="0.0" d="m163.78262 133.12791l17.799988 0l0 52.19995l-17.799988 0l0 -52.19995z" fill-rule="nonzero"/><path fill="#4d5156" d="m171.78262 173.97037q-1.125 0 -2.125 -0.796875q-1.0 -0.8125 -1.828125 -2.1875q-0.8125 -1.375 -1.375 -3.1875q-0.546875 -1.828125 -0.875 -3.84375q-0.3125 -2.03125 -0.3125 -4.0625q0 -2.640625 0.609375 -5.234375q0.625 -2.609375 1.71875 -4.71875q1.109375 -2.125 2.578125 -3.40625q1.484375 -1.28125 3.171875 -1.28125q1.484375 0 2.703125 1.28125q1.21875 1.28125 2.125 3.40625q0.921875 2.109375 1.421875 4.6875q0.5 2.578125 0.5 5.21875q0 1.96875 -0.40625 3.984375q-0.390625 2.015625 -1.109375 3.84375q-0.71875 1.8125 -1.734375 3.234375q-1.015625 1.421875 -2.328125 2.25q-1.296875 0.8125 -2.734375 0.8125zm-0.046875 -4.6875q1.171875 0 2.078125 -0.546875q0.921875 -0.5625 1.625 -1.546875q0.703125 -0.984375 1.140625 -2.3125q0.4375 -1.34375 0.609375 -2.90625q0.03125 -0.28125 -0.046875 -0.390625q-0.078125 -0.125 -0.28125 -0.125l-8.921875 0q-0.234375 0 -0.359375 0.15625q-0.109375 0.15625 -0.109375 0.390625q0 2.53125 0.453125 4.125q0.453125 1.59375 1.390625 2.375q0.953125 0.78125 2.421875 0.78125zm-3.0 -12.0l8.40625 0q0.359375 0 0.46875 -0.296875q0.125 -0.296875 0.125 -0.984375q0 -3.15625 -0.90625 -4.515625q-0.890625 -1.359375 -3.125 -1.359375q-1.40625 0 -2.390625 0.6875q-0.96875 0.671875 -1.65625 2.203125q-0.671875 1.515625 -1.234375 3.953125q-0.046875 0.15625 0.078125 0.234375q0.125 0.078125 0.234375 0.078125z" fill-rule="nonzero"/><path fill="#000000" d="m193.54698 160.76724q-0.28125 0 -0.46875 -0.15625q-0.171875 -0.15625 -0.171875 -0.328125q0 -0.234375 0.09375 -0.671875q0.109375 -0.4375 0.34375 -0.75q0.234375 -0.328125 0.640625 -0.328125l19.5625 0q0.359375 0 0.59375 0.15625q0.234375 0.15625 0.234375 0.4375q0 0.484375 -0.375 1.0625q-0.375 0.578125 -0.890625 0.578125l-19.5625 0zm0 7.234375q-0.28125 0 -0.46875 -0.171875q-0.171875 -0.1875 -0.171875 -0.34375q0 -0.203125 0.09375 -0.640625q0.109375 -0.4375 0.34375 -0.75q0.234375 -0.328125 0.640625 -0.328125l19.5625 0q0.359375 0 0.59375 0.171875q0.234375 0.15625 0.234375 0.421875q0 0.484375 -0.375 1.0625q-0.375 0.578125 -0.890625 0.578125l-19.5625 0zm43.155594 5.96875q-1.15625 0 -2.140625 -0.203125q-0.984375 -0.203125 -1.78125 -0.40625q-0.59375 -0.1875 -1.09375 -0.3125q-0.5 -0.125 -0.828125 -0.125q-0.390625 0 -0.75 0.140625q-0.359375 0.140625 -0.6875 0.390625q-0.359375 0.265625 -0.5625 0.265625q-0.359375 0 -0.546875 -0.15625q-0.171875 -0.15625 -0.171875 -0.359375q0 -0.359375 0.21875 -1.390625q0.21875 -1.046875 0.1875 -2.609375l-0.15625 -17.796875q0 -1.046875 -0.3125 -1.859375q-0.296875 -0.828125 -1.25 -1.015625q-0.203125 -0.046875 -0.34375 -0.203125q-0.140625 -0.15625 -0.140625 -0.4375q0 -0.203125 0.109375 -0.359375q0.125 -0.171875 0.328125 -0.203125q0.875 -0.15625 2.03125 -0.53125q1.171875 -0.390625 2.265625 -0.8125q1.109375 -0.421875 1.703125 -0.625q0.40625 -0.15625 0.5625 -0.15625q0.234375 0 0.328125 0.140625q0.109375 0.140625 0.109375 0.34375q0 0.234375 -0.109375 1.0q-0.09375 0.765625 -0.09375 1.515625l0 8.5625q0 0.515625 0.078125 0.828125q0.09375 0.296875 0.28125 0.296875q1.25 -0.84375 2.578125 -1.296875q1.34375 -0.46875 2.546875 -0.46875q2.078125 0 3.75 1.078125q1.6875 1.078125 2.671875 2.96875q0.984375 1.875 0.984375 4.234375q0 2.796875 -1.25 4.984375q-1.234375 2.171875 -3.421875 3.375q-2.171875 1.203125 -5.09375 1.203125zm0.71875 -1.6875q1.078125 0 1.828125 -0.9375q0.765625 -0.9375 1.1875 -2.5q0.421875 -1.5625 0.421875 -3.390625q0 -1.609375 -0.421875 -3.25q-0.421875 -1.640625 -1.328125 -2.734375q-0.890625 -1.109375 -2.28125 -1.109375q-0.71875 0 -1.6875 0.234375q-0.953125 0.21875 -1.5625 0.6875l0 8.53125q0 1.28125 0.53125 2.328125q0.546875 1.03125 1.421875 1.59375q0.890625 0.546875 1.890625 0.546875zm11.398727 3.609375q-0.4375 0 -0.6875 -0.25q-0.234375 -0.234375 -0.109375 -0.515625l12.35939 -27.5625q0.28125 -0.515625 0.734375 -0.671875q0.46875 -0.171875 1.109375 -0.171875q0.515625 0 0.71875 0.28125q0.203125 0.28125 0.078125 0.5625l-12.406265 27.5625q-0.1875 0.484375 -0.71875 0.625q-0.515625 0.140625 -1.078125 0.140625zm19.960007 -1.921875q-2.125 0 -3.828125 -1.140625q-1.6875 -1.140625 -2.671875 -3.078125q-0.984375 -1.9375 -0.984375 -4.390625q0 -2.59375 1.203125 -4.671875q1.203125 -2.078125 3.21875 -3.3125q2.03125 -1.25 4.5 -1.25q3.28125 0 5.4375 2.15625q0.375 0.40625 0.375 0.71875q0 0.25 -0.375 0.71875q-0.359375 0.453125 -0.796875 0.8125q-0.4375 0.359375 -0.75 0.359375q-0.359375 0 -0.703125 -0.21875q-0.34375 -0.21875 -0.65625 -0.5q-1.046875 -0.890625 -2.109375 -1.421875q-1.0625 -0.546875 -1.8125 -0.546875q-1.53125 0 -2.3125 1.265625q-0.765625 1.25 -0.765625 4.09375q0 1.96875 0.609375 3.390625q0.625 1.40625 1.78125 2.171875q1.15625 0.765625 2.796875 0.765625q1.203125 0 2.078125 -0.375q0.890625 -0.390625 1.84375 -1.1875q0.203125 -0.125 0.34375 -0.234375q0.140625 -0.125 0.34375 -0.125q0.484375 0 0.484375 0.640625q0 0.15625 -0.0625 0.453125q-0.0625 0.296875 -0.265625 0.65625q-0.359375 0.8125 -1.390625 1.8125q-1.015625 1.0 -2.421875 1.71875q-1.390625 0.71875 -3.109375 0.71875z" fill-rule="nonzero"/><path fill="#ffffff" d="m160.86263 231.00787l27.279984 0l0 48.0l-27.279984 0l0 -48.0z" fill-rule="nonzero"/><path fill="#000000" d="m109.02018 269.97037q-2.125 0 -3.828125 -1.140625q-1.6875 -1.140625 -2.671875 -3.078125q-0.984375 -1.9375 -0.984375 -4.390625q0 -2.59375 1.203125 -4.671875q1.203125 -2.078125 3.21875 -3.3125q2.03125 -1.25 4.5 -1.25q3.28125 0 5.4375 2.15625q0.375 0.40625 0.375 0.71875q0 0.25 -0.375 0.71875q-0.359375 0.453125 -0.796875 0.8125q-0.4375 0.359375 -0.75 0.359375q-0.359375 0 -0.703125 -0.21875q-0.34375 -0.21875 -0.65625 -0.5q-1.046875 -0.890625 -2.109375 -1.421875q-1.0625 -0.546875 -1.8125 -0.546875q-1.53125 0 -2.3125 1.265625q-0.765625 1.25 -0.765625 4.09375q0 1.96875 0.609375 3.390625q0.625 1.40625 1.78125 2.171875q1.15625 0.765625 2.796875 0.765625q1.203125 0 2.078125 -0.375q0.890625 -0.390625 1.84375 -1.1875q0.203125 -0.125 0.34375 -0.234375q0.140625 -0.125 0.34375 -0.125q0.484375 0 0.484375 0.640625q0 0.15625 -0.0625 0.453125q-0.0625 0.296875 -0.265625 0.65625q-0.359375 0.8125 -1.390625 1.8125q-1.015625 1.0 -2.421875 1.71875q-1.390625 0.71875 -3.109375 0.71875zm17.326859 0q-2.40625 0 -4.328125 -1.078125q-1.921875 -1.078125 -3.0625 -2.984375q-1.140625 -1.90625 -1.140625 -4.296875q0 -1.921875 0.71875 -3.640625q0.734375 -1.71875 2.0 -3.03125q1.28125 -1.328125 3.0 -2.078125q1.734375 -0.765625 3.6875 -0.765625q2.4843674 0 4.4843674 1.15625q2.0 1.15625 3.171875 3.0625q1.1875 1.890625 1.1875 4.140625q0 2.546875 -1.109375 4.734375q-1.09375 2.171875 -3.234375 3.484375q-2.140625 1.296875 -5.3749924 1.296875zm0.796875 -1.765625q0.84375 0 1.4531174 -0.328125q0.625 -0.34375 1.03125 -1.03125q0.46875 -0.796875 0.640625 -2.171875q0.1875 -1.390625 0.1875 -3.265625q0 -2.15625 -0.484375 -3.859375q-0.46875 -1.703125 -1.328125 -2.703125q-0.8593674 -1.0 -2.0156174 -1.0q-0.640625 0 -1.171875 0.21875q-0.515625 0.21875 -0.90625 0.625q-0.6875 0.796875 -0.953125 2.28125q-0.25 1.484375 -0.25 3.640625q0 1.921875 0.5 3.65625q0.5 1.734375 1.359375 2.84375q0.859375 1.09375 1.9375 1.09375zm16.432472 1.765625q-1.3125 0 -2.5625 -0.328125q-1.234375 -0.3125 -2.234375 -1.03125q-0.359375 -0.609375 -0.515625 -1.875q-0.15625 -1.28125 -0.125 -2.6875q0 -0.484375 0.796875 -0.484375q0.328125 0 0.5625 0.203125q0.25 0.203125 0.28125 0.40625q0.765625 1.671875 1.765625 2.859375q1.0 1.171875 2.390625 1.171875q1.09375 0 1.640625 -0.65625q0.5625 -0.65625 0.5625 -1.5q0 -1.046875 -0.828125 -1.734375q-0.8125 -0.703125 -1.96875 -1.3125q-1.15625 -0.59375 -2.203125 -1.34375q-1.03125 -0.765625 -1.703125 -1.828125q-0.65625 -1.0625 -0.65625 -2.546875q0 -1.5625 0.859375 -2.71875q0.859375 -1.15625 2.3125 -1.8125q1.46875 -0.65625 3.265625 -0.65625q1.328125 0 2.4375 0.296875q1.125 0.296875 1.53125 0.578125q0.3125 0.390625 0.515625 1.5q0.203125 1.09375 0.203125 2.421875q0 0.4375 -0.71875 0.4375q-0.28125 0 -0.59375 -0.203125q-0.296875 -0.203125 -0.375 -0.40625q-0.515625 -1.546875 -1.34375 -2.328125q-0.8125 -0.78125 -1.8125 -0.78125q-0.875 0 -1.59375 0.5625q-0.71875 0.546875 -0.71875 1.515625q0 0.84375 0.765625 1.5q0.78125 0.65625 1.953125 1.296875q2.59375 1.359375 3.703125 2.625q1.125 1.25 1.125 3.34375q0 2.59375 -1.703125 4.0625q-1.6875 1.453125 -5.015625 1.453125z" fill-rule="nonzero"/><path fill="#000000" fill-opacity="0.0" d="m160.86263 229.12791l27.279984 0l0 52.199936l-27.279984 0l0 -52.199936z" fill-rule="nonzero"/><path fill="#4d5156" d="m168.86263 269.97037q-1.125 0 -2.125 -0.796875q-1.0 -0.8125 -1.828125 -2.1875q-0.8125 -1.375 -1.375 -3.1875q-0.546875 -1.828125 -0.875 -3.84375q-0.3125 -2.03125 -0.3125 -4.0625q0 -2.640625 0.609375 -5.234375q0.625 -2.609375 1.71875 -4.71875q1.109375 -2.125 2.578125 -3.40625q1.484375 -1.28125 3.171875 -1.28125q1.484375 0 2.703125 1.28125q1.21875 1.28125 2.125 3.40625q0.921875 2.109375 1.421875 4.6875q0.5 2.578125 0.5 5.21875q0 1.96875 -0.40625 3.984375q-0.390625 2.015625 -1.109375 3.84375q-0.71875 1.8125 -1.734375 3.234375q-1.015625 1.421875 -2.328125 2.25q-1.296875 0.8125 -2.734375 0.8125zm-0.046875 -4.6875q1.171875 0 2.078125 -0.546875q0.921875 -0.5625 1.625 -1.546875q0.703125 -0.984375 1.140625 -2.3125q0.4375 -1.34375 0.609375 -2.90625q0.03125 -0.28125 -0.046875 -0.390625q-0.078125 -0.125 -0.28125 -0.125l-8.921875 0q-0.234375 0 -0.359375 0.15625q-0.109375 0.15625 -0.109375 0.390625q0 2.53125 0.453125 4.125q0.453125 1.59375 1.390625 2.375q0.953125 0.78125 2.421875 0.78125zm-3.0 -12.0l8.40625 0q0.359375 0 0.46875 -0.296875q0.125 -0.296875 0.125 -0.984375q0 -3.15625 -0.90625 -4.515625q-0.890625 -1.359375 -3.125 -1.359375q-1.40625 0 -2.390625 0.6875q-0.96875 0.671875 -1.65625 2.203125q-0.671875 1.515625 -1.234375 3.953125q-0.046875 0.15625 0.078125 0.234375q0.125 0.078125 0.234375 0.078125z" fill-rule="nonzero"/><path fill="#000000" d="m190.62698 256.76724q-0.28125 0 -0.46875 -0.15625q-0.171875 -0.15625 -0.171875 -0.328125q0 -0.234375 0.09375 -0.671875q0.109375 -0.4375 0.34375 -0.75q0.234375 -0.328125 0.640625 -0.328125l19.5625 0q0.359375 0 0.59375 0.15625q0.234375 0.15625 0.234375 0.4375q0 0.484375 -0.375 1.0625q-0.375 0.578125 -0.890625 0.578125l-19.5625 0zm0 7.234375q-0.28125 0 -0.46875 -0.171875q-0.171875 -0.1875 -0.171875 -0.34375q0 -0.203125 0.09375 -0.640625q0.109375 -0.4375 0.34375 -0.75q0.234375 -0.328125 0.640625 -0.328125l19.5625 0q0.359375 0 0.59375 0.171875q0.234375 0.15625 0.234375 0.421875q0 0.484375 -0.375 1.0625q-0.375 0.578125 -0.890625 0.578125l-19.5625 0zm37.311844 5.96875q-1.078125 0 -2.0 -0.53125q-0.921875 -0.515625 -1.46875 -1.34375q-0.53125 -0.84375 -0.53125 -1.84375q0 -1.359375 0.859375 -2.28125q0.859375 -0.921875 2.546875 -1.640625l3.5625 -1.5625q0.796875 -0.359375 0.96875 -0.640625q0.1875 -0.28125 0.1875 -1.03125l0.03125 -2.28125q0.046875 -1.125 -0.390625 -1.78125q-0.4375 -0.671875 -1.328125 -0.671875q-0.515625 0 -1.03125 0.234375q-0.515625 0.21875 -0.796875 0.5q-0.125 0.15625 -0.1875 0.375q-0.0625 0.21875 -0.0625 0.453125q0 0.25 0.03125 0.59375q0.046875 0.328125 0.046875 0.578125q0 0.234375 -0.640625 0.625q-0.640625 0.375 -1.484375 0.671875q-0.828125 0.296875 -1.421875 0.296875q-0.28125 0 -0.515625 -0.234375q-0.21875 -0.25 -0.21875 -0.609375q0 -0.640625 0.4375 -1.25q0.453125 -0.625 1.453125 -1.421875q1.03125 -0.890625 2.265625 -1.5625q1.25 -0.6875 2.46875 -1.078125q1.21875 -0.40625 2.0625 -0.40625q2.15625 0 3.4375 1.390625q1.28125 1.375 1.203125 3.65625l-0.203125 8.078125q-0.03125 0.921875 0.328125 1.5625q0.359375 0.640625 0.875 0.640625q0.765625 0 1.3125 -0.53125q0.125 -0.109375 0.25 -0.109375q0.203125 0 0.34375 0.125q0.140625 0.109375 0.140625 0.3125q0 0.46875 -0.734375 1.234375q-0.75 0.71875 -1.59375 1.09375q-0.84375 0.390625 -1.765625 0.390625q-2.234375 0 -3.71875 -2.28125l-0.078125 0q-1.3125 1.203125 -2.375 1.734375q-1.0625 0.546875 -2.265625 0.546875zm2.40625 -2.609375q0.4375 0 0.71875 -0.125q0.28125 -0.140625 0.5625 -0.46875q0.109375 -0.15625 0.1875 -0.40625q0.09375 -0.265625 0.09375 -0.640625l0.109375 -2.875q0 -0.390625 -0.125 -0.515625q-0.109375 -0.125 -0.265625 -0.125q-0.078125 0 -0.203125 0.046875q-0.125 0.03125 -0.28125 0.109375q-1.15625 0.5625 -1.71875 1.15625q-0.5625 0.578125 -0.5625 1.84375q0 1.171875 0.484375 1.59375q0.484375 0.40625 1.0 0.40625zm11.394989 4.53125q-0.4375 0 -0.6875 -0.25q-0.234375 -0.234375 -0.109375 -0.515625l12.359375 -27.5625q0.28125 -0.515625 0.734375 -0.671875q0.46875 -0.171875 1.109375 -0.171875q0.515625 0 0.71875 0.28125q0.20314026 0.28125 0.078125 0.5625l-12.40625 27.5625q-0.1875 0.484375 -0.71875 0.625q-0.515625 0.140625 -1.078125 0.140625zm19.960007 -1.921875q-2.125 0 -3.828125 -1.140625q-1.6875 -1.140625 -2.6718903 -3.078125q-0.984375 -1.9375 -0.984375 -4.390625q0 -2.59375 1.203125 -4.671875q1.2031403 -2.078125 3.2187653 -3.3125q2.03125 -1.25 4.5 -1.25q3.28125 0 5.4375 2.15625q0.375 0.40625 0.375 0.71875q0 0.25 -0.375 0.71875q-0.359375 0.453125 -0.796875 0.8125q-0.4375 0.359375 -0.75 0.359375q-0.359375 0 -0.703125 -0.21875q-0.34375 -0.21875 -0.65625 -0.5q-1.046875 -0.890625 -2.109375 -1.421875q-1.0625 -0.546875 -1.8125 -0.546875q-1.53125 0 -2.3125 1.265625q-0.765625 1.25 -0.765625 4.09375q0 1.96875 0.609375 3.390625q0.625 1.40625 1.78125 2.171875q1.15625 0.765625 2.796875 0.765625q1.203125 0 2.078125 -0.375q0.890625 -0.390625 1.84375 -1.1875q0.203125 -0.125 0.34375 -0.234375q0.140625 -0.125 0.34375 -0.125q0.484375 0 0.484375 0.640625q0 0.15625 -0.0625 0.453125q-0.0625 0.296875 -0.265625 0.65625q-0.359375 0.8125 -1.390625 1.8125q-1.015625 1.0 -2.421875 1.71875q-1.390625 0.71875 -3.109375 0.71875z" fill-rule="nonzero"/><path fill="#000000" fill-opacity="0.0" d="m426.67453 424.6509l72.09451 0l0 72.72443l-72.09451 0z" fill-rule="evenodd"/><path fill="#ffffff" d="m435.67453 433.6509l19.579956 0l0 52.80002l-19.579956 0l0 -52.80002z" fill-rule="nonzero"/><path fill="#000000" fill-opacity="0.0" d="m435.67453 431.583l19.579956 0l0 57.41989l-19.579956 0l0 -57.41989z" fill-rule="nonzero"/><path fill="#4d5156" d="m444.4714 476.5003q-1.234375 0 -2.328125 -0.875q-1.09375 -0.875 -2.0 -2.390625q-0.90625 -1.53125 -1.53125 -3.53125q-0.609375 -2.0 -0.96875 -4.21875q-0.34375 -2.21875 -0.34375 -4.46875q0 -2.90625 0.671875 -5.765625q0.6875 -2.859375 1.890625 -5.1875q1.21875 -2.328125 2.84375 -3.734375q1.640625 -1.40625 3.484375 -1.40625q1.625 0 2.96875 1.40625q1.34375 1.40625 2.359375 3.734375q1.015625 2.328125 1.5625 5.171875q0.546875 2.84375 0.546875 5.734375q0 2.15625 -0.4375 4.390625q-0.4375 2.21875 -1.234375 4.21875q-0.796875 2.0 -1.921875 3.5625q-1.109375 1.5625 -2.546875 2.46875q-1.421875 0.890625 -3.015625 0.890625zm-0.046875 -5.140625q1.28125 0 2.296875 -0.609375q1.015625 -0.625 1.78125 -1.703125q0.765625 -1.078125 1.25 -2.546875q0.484375 -1.484375 0.65625 -3.1875q0.046875 -0.3125 -0.046875 -0.4375q-0.078125 -0.140625 -0.296875 -0.140625l-9.8125 0q-0.265625 0 -0.40625 0.1875q-0.125 0.171875 -0.125 0.421875q0 2.78125 0.5 4.546875q0.515625 1.75 1.546875 2.609375q1.03125 0.859375 2.65625 0.859375zm-3.296875 -13.203125l9.25 0q0.390625 0 0.515625 -0.328125q0.140625 -0.328125 0.140625 -1.078125q0 -3.46875 -1.0 -4.96875q-0.984375 -1.5 -3.453125 -1.5q-1.53125 0 -2.609375 0.75q-1.078125 0.75 -1.828125 2.421875q-0.75 1.671875 -1.359375 4.359375q-0.046875 0.171875 0.078125 0.265625q0.140625 0.078125 0.265625 0.078125z" fill-rule="nonzero"/></g></svg>